<svg width="512" height="512" viewBox="0 0 512 512" fill="none" xmlns="http://www.w3.org/2000/svg">
<g clip-path="url(#clip0_398_814)">
<path d="M58.645 126V51.76H48.405V36.4H76.565V126H58.645ZM118.825 87.6H95.529C89.2997 81.7973 86.185 73.6053 86.185 63.024C86.185 52.4427 89.2997 43.568 95.529 36.4H118.825C125.14 43.6533 128.297 52.4427 128.297 62.768C128.297 67.2907 127.529 71.8133 125.993 76.336C124.457 80.8587 122.068 84.6133 118.825 87.6ZM105.513 75.056H108.841C110.718 71.728 111.657 67.2907 111.657 61.744C111.657 56.112 110.676 51.9307 108.713 49.2H105.641C103.678 52.1013 102.697 56.3253 102.697 61.872C102.697 67.3333 103.636 71.728 105.513 75.056ZM157.519 126V36.4H203.471V51.76H175.055V73.136H200.399V87.984H175.055V111.152H203.983V126H157.519ZM262.79 126H249.862L247.558 121.392C245.681 123.099 243.889 124.293 242.182 124.976C240.561 125.659 238.086 126 234.758 126H223.622C219.867 122.416 216.881 117.723 214.662 111.92C212.529 106.117 211.462 99.632 211.462 92.464C211.462 85.2107 212.529 79.0667 214.662 74.032C216.881 68.9973 219.995 64.5173 224.006 60.592H235.014C239.537 60.592 243.121 61.7867 245.766 64.176V36.4H262.79V126ZM245.766 74.032H233.478C230.321 79.408 228.742 86.0213 228.742 93.872C228.742 101.637 230.278 107.867 233.35 112.56H245.766V74.032ZM273.754 126V60.592H290.65V126H273.754ZM273.754 36.4H290.65V53.68H273.754V36.4ZM322.493 142.896H319.293V133.68L322.621 126H314.941C304.872 117.979 299.837 106.885 299.837 92.72C299.837 78.5547 305.213 67.8453 315.965 60.592H342.973V74.032H323.773C319.592 78.384 317.501 84.6133 317.501 92.72C317.501 96.304 318.056 99.9733 319.165 103.728C320.274 107.397 321.81 110.341 323.773 112.56H342.973V126H333.501L330.557 133.68C331.837 134.789 332.776 135.728 333.373 136.496C335.25 138.715 336.189 141.445 336.189 144.688C336.189 147.931 335.421 150.789 333.885 153.264C332.349 155.739 330.386 157.744 327.997 159.28H316.733V148.912H322.493C323.261 148.4 323.645 147.419 323.645 145.968C323.73 144.517 323.346 143.493 322.493 142.896ZM381.727 96.432H368.031C366.239 98.6507 365.343 101.424 365.343 104.752C365.343 108.08 366.282 110.683 368.159 112.56H381.727V96.432ZM354.207 60.592H385.951C391.071 63.664 394.442 67.2053 396.063 71.216C397.684 75.1413 398.495 80.5173 398.495 87.344V106.544C398.495 113.627 398.666 120.112 399.007 126H384.415L382.111 121.392C378.783 124.464 374.09 126 368.031 126H359.967C352.714 121.221 349.087 114.352 349.087 105.392C349.087 96.3467 352.799 89.2213 360.223 84.016H372.255C375.583 84.016 378.698 85.04 381.599 87.088V80.688C381.599 77.36 380.148 75.1413 377.247 74.032H354.207V60.592ZM379.551 54.704L367.263 51.504C365.471 51.504 361.972 52.4853 356.767 54.448V41.648C362.228 39.344 365.898 38.192 367.775 38.192L380.191 41.648C381.898 41.648 385.268 41.0507 390.303 39.856V52.912C385.098 54.192 381.514 54.7893 379.551 54.704ZM448.416 126H420.512C411.979 118.064 407.712 107.227 407.712 93.488C407.712 86.576 408.651 80.56 410.528 75.44C412.491 70.32 415.563 65.3707 419.744 60.592H449.696C454.133 65.712 457.163 70.704 458.784 75.568C460.405 80.3467 461.216 86.32 461.216 93.488C461.216 107.227 456.949 118.064 448.416 126ZM429.6 112.56H439.328C442.4 106.587 443.936 99.8027 443.936 92.208C443.936 84.6133 442.357 78.5547 439.2 74.032H429.6C426.528 78.384 424.992 84.5707 424.992 92.592C424.992 100.528 426.528 107.184 429.6 112.56ZM75.4565 215.4H109.505C114.881 217.192 119.446 220.52 123.201 225.384C127.041 230.163 128.961 236.051 128.961 243.048C128.961 254.483 124.438 262.888 115.393 268.264L128.321 305H110.401L99.5205 272.36H92.7365V305H75.4565V215.4ZM92.7365 230.76V258.024H103.745C105.195 257.683 106.774 256.232 108.481 253.672C110.273 251.027 111.169 247.955 111.169 244.456C111.169 240.957 110.401 237.885 108.865 235.24C107.414 232.595 105.963 231.101 104.513 230.76H92.7365ZM138.207 305V215.4H184.159V230.76H155.743V252.136H181.087V266.984H155.743V290.152H184.671V305H138.207ZM249.494 215.4L231.318 305H207.253L189.078 215.4H207.51L214.55 256.872L218.902 283.752H219.67L224.022 256.872L231.062 215.4H249.494ZM256.332 305V215.4H273.868V305H256.332ZM294.399 215.4H325.119V230.76H300.543L300.159 231.528L320.639 268.904C324.82 276.413 326.911 282.131 326.911 286.056C326.911 294.675 324.052 300.989 318.335 305H284.415V290.152H310.911L311.295 289.384L288.255 248.04C284.927 242.067 283.263 237.203 283.263 233.448C283.263 224.573 286.975 218.557 294.399 215.4ZM350.296 230.76H330.968V215.4H387.032V230.76H367.704V305H350.296V230.76ZM424.226 305L421.538 290.792H401.314L398.626 305H381.218L398.498 215.4H424.994L441.378 305H424.226ZM411.17 232.04L406.178 261.864L403.362 277.096H419.362L416.418 261.864L411.426 232.04H411.17ZM61.9865 409.76V441.76H73.3785C78.0718 437.92 80.4185 432.288 80.4185 424.864C80.4185 421.707 79.7785 418.72 78.4985 415.904C77.3038 413.088 75.8532 411.04 74.1465 409.76H61.9865ZM44.7065 484V394.4H79.3945C85.1972 396.96 89.7625 400.885 93.0905 406.176C96.5038 411.467 98.2105 417.653 98.2105 424.736C98.2105 431.733 96.4612 438.219 92.9625 444.192C89.4638 450.165 84.3012 454.389 77.4745 456.864H61.9865V484H44.7065ZM107.582 484V394.4H153.534V409.76H125.118V431.136H150.462V445.984H125.118V469.152H154.046V484H107.582ZM178.421 409.76H159.093V394.4H215.157V409.76H195.829V484H178.421V409.76ZM242.914 469.152H265.442V484H232.93C227.298 478.709 223.031 472.011 220.13 463.904C217.228 455.797 215.778 447.477 215.778 438.944C215.778 430.325 217.399 422.048 220.642 414.112C223.884 406.176 228.706 399.605 235.106 394.4H265.442V409.76H242.914C240.61 412.405 238.604 416.672 236.898 422.56C235.276 428.448 234.466 434.08 234.466 439.456C234.466 444.832 235.276 450.464 236.898 456.352C238.604 462.24 240.61 466.507 242.914 469.152ZM313.31 394.4C319.283 399.264 323.72 405.792 326.622 413.984C329.523 422.176 330.974 430.624 330.974 439.328C330.974 447.947 329.566 456.139 326.75 463.904C323.934 471.669 319.454 478.368 313.31 484H286.942C280.798 478.368 276.318 471.669 273.502 463.904C270.686 456.139 269.278 447.947 269.278 439.328C269.278 430.624 270.728 422.176 273.63 413.984C276.531 405.792 280.968 399.264 286.942 394.4H313.31ZM295.518 469.152H304.734C306.867 466.677 308.659 462.667 310.11 457.12C311.646 451.488 312.414 445.557 312.414 439.328C312.414 433.099 311.688 427.253 310.238 421.792C308.787 416.245 306.995 412.235 304.862 409.76H295.518C293.384 412.235 291.55 416.245 290.014 421.792C288.563 427.253 287.838 433.099 287.838 439.328C287.838 445.557 288.563 451.488 290.014 457.12C291.55 462.667 293.384 466.677 295.518 469.152ZM372.347 443.04H371.835H372.347L379.131 415.008L384.635 394.4H400.635L406.395 484H389.627L387.195 435.104H386.555L377.339 471.2H366.843L357.627 435.104H356.987L354.555 484H337.786L343.547 394.4H359.547L365.051 415.008L371.835 443.04H372.347ZM433.987 409.76V441.76H445.379C450.072 437.92 452.419 432.288 452.419 424.864C452.419 421.707 451.779 418.72 450.499 415.904C449.304 413.088 447.853 411.04 446.147 409.76H433.987ZM416.707 484V394.4H451.395C457.197 396.96 461.763 400.885 465.091 406.176C468.504 411.467 470.211 417.653 470.211 424.736C470.211 431.733 468.461 438.219 464.963 444.192C461.464 450.165 456.301 454.389 449.475 456.864H433.987V484H416.707Z" fill="white"/>
</g>
<defs>
<clipPath id="clip0_398_814">
<rect width="512" height="512" fill="white"/>
</clipPath>
</defs>
</svg>
