<svg width="400" height="400" viewBox="0 0 400 400" fill="none" xmlns="http://www.w3.org/2000/svg">
<circle cx="200" cy="200" r="198.5" fill="white" stroke="black" stroke-width="3"/>
<path d="M101.102 281.708H120.772V289.569H111.732V291.808H120.738V298.507H111.732V301.087H121.371V309H101.102V281.708ZM136.666 291.739L138.768 287.757H146.646L141.332 297.806L148.185 309H137.965L135.555 304.164L133.59 309H125.045L130.787 297.977L124.874 287.757H134.564L136.666 291.739ZM167.616 307.462C165.451 308.932 163.155 309.667 160.729 309.667C158.313 309.667 156.348 308.983 154.833 307.616C153.317 306.237 152.56 304.386 152.56 302.062V293.175H150.611V287.757H152.56V282.015L162.779 280.973V287.757H167.616V293.175H162.779V298.541C162.779 300.147 163.138 301.315 163.856 302.044C164.585 302.762 165.838 303.121 167.616 303.121V307.462ZM184.654 293.841C184.654 292.839 184.187 292.337 183.253 292.337C182.182 292.44 181.487 292.993 181.168 293.995C181.008 294.474 180.895 295.032 180.826 295.67C180.769 296.297 180.678 296.969 180.553 297.687L184.295 296.849L184.62 294.234L184.654 293.841ZM182.347 301.617C182.347 301.617 182.034 301.617 181.407 301.617C181.111 301.617 180.826 301.606 180.553 301.583C180.553 302.939 181.276 303.679 182.723 303.805C183.122 303.839 183.509 303.856 183.885 303.856C184.854 303.856 186.067 303.634 187.525 303.189C188.995 302.745 190.311 302.022 191.473 301.019L192.533 306.334C189.992 308.533 186.153 309.632 181.014 309.632C178.063 309.632 175.528 308.772 173.409 307.052C171.108 305.172 169.957 302.569 169.957 299.242C169.957 296.735 170.606 294.485 171.905 292.491C173.113 290.668 174.748 289.284 176.81 288.338C178.872 287.393 181.1 286.92 183.492 286.92C186.591 286.92 188.932 287.598 190.516 288.954C192.111 290.309 192.903 291.984 192.892 293.978C192.892 295.972 191.94 297.743 190.038 299.293C188.135 300.842 185.571 301.617 182.347 301.617ZM208.016 293.534C207.105 293.534 206.649 294.269 206.649 295.738V309H196.498V287.757H202.103L204.547 291.073C205.458 289.808 206.717 288.806 208.324 288.065C209.942 287.324 211.451 286.954 212.853 286.954C215.427 286.954 217.467 287.638 218.971 289.005C220.486 290.372 221.244 292.206 221.244 294.508V309H211.024V298.746C211.024 295.271 210.021 293.534 208.016 293.534ZM240.948 294.132C238.419 293.539 236.579 293.243 235.428 293.243C235.098 293.243 234.841 293.317 234.659 293.465C234.488 293.613 234.403 293.779 234.403 293.961C234.403 294.337 234.87 294.719 235.804 295.106C236.75 295.482 237.616 295.852 238.402 296.217C239.188 296.581 239.866 297.026 240.436 297.55C241.666 298.689 242.281 300.387 242.281 302.643C242.281 304.887 241.467 306.613 239.837 307.821C238.208 309.028 236.004 309.632 233.224 309.632C230.444 309.632 228.222 309.376 226.559 308.863C225.829 308.647 225.271 308.39 224.884 308.094V301.754C225.043 301.765 225.322 301.839 225.721 301.976C226.12 302.113 226.781 302.329 227.704 302.625C228.626 302.91 229.464 303.053 230.216 303.053C230.979 303.053 231.361 302.774 231.361 302.215C231.361 301.782 231.019 301.361 230.335 300.951C230.028 300.768 229.68 300.58 229.293 300.387C227.687 299.601 226.536 298.695 225.841 297.669C225.157 296.633 224.815 295.419 224.815 294.029C224.815 291.557 225.818 289.711 227.823 288.492C229.509 287.467 231.714 286.954 234.437 286.954C236.34 286.954 238.248 287.142 240.162 287.518C240.572 287.598 240.834 287.655 240.948 287.689V294.132ZM248.143 307.12C247.232 306.266 246.502 305.195 245.956 303.907C245.42 302.608 245.152 301.213 245.152 299.72C245.152 298.228 245.3 296.935 245.597 295.841C246.189 293.665 247.226 291.836 248.707 290.355C249.413 289.626 250.2 289.011 251.065 288.509C252.843 287.472 254.717 286.954 256.688 286.954C258.67 286.954 260.408 287.609 261.9 288.919C262.379 289.341 262.795 289.825 263.148 290.372L265.592 287.757H271.197V309H265.592L263.148 305.462C261.279 308.22 258.448 309.604 254.654 309.615C253.606 309.627 252.484 309.422 251.288 309C250.103 308.59 249.055 307.963 248.143 307.12ZM261.986 294.2C261.576 293.961 261.086 293.841 260.516 293.841C259.946 293.841 259.343 294.046 258.705 294.457C258.078 294.855 257.514 295.362 257.013 295.978C255.896 297.356 255.338 298.757 255.338 300.182C255.338 301.184 255.646 301.891 256.261 302.301C256.83 302.677 257.696 302.625 258.858 302.147C260.032 301.657 261.074 301.025 261.986 300.25V294.2ZM267.215 278.067C267.398 278.067 267.489 278.159 267.489 278.341C267.489 281.531 266.686 283.422 265.079 284.015C264.589 284.197 264.025 284.288 263.387 284.288C262.749 284.288 262.031 284.197 261.234 284.015C260.448 283.821 259.32 283.519 257.85 283.109C256.392 282.687 255.298 282.477 254.569 282.477C253.84 282.477 253.299 282.596 252.945 282.835C252.592 283.063 252.341 283.229 252.193 283.331C252.045 283.434 251.931 283.485 251.852 283.485C251.635 283.485 251.527 283.394 251.527 283.211C251.515 280.044 252.364 278.176 254.073 277.606C254.597 277.424 255.19 277.333 255.851 277.333C256.83 277.333 258.363 277.629 260.448 278.221C262.544 278.814 263.866 279.11 264.413 279.11C264.971 279.11 265.375 279.059 265.626 278.956C265.888 278.842 266.122 278.722 266.327 278.597C266.532 278.46 266.703 278.341 266.839 278.238C266.987 278.124 267.113 278.067 267.215 278.067ZM289.962 293.807C289.734 293.693 289.438 293.636 289.073 293.636C288.72 293.636 288.327 293.744 287.894 293.961C287.461 294.166 287.034 294.451 286.612 294.815C285.724 295.59 284.977 296.53 284.374 297.635C283.77 298.74 283.468 299.76 283.468 300.694C283.468 301.617 283.821 302.238 284.527 302.557C284.778 302.671 285.086 302.728 285.45 302.728C285.815 302.728 286.196 302.62 286.595 302.403C286.994 302.175 287.393 301.874 287.792 301.498C288.623 300.711 289.352 299.76 289.979 298.644C290.606 297.516 290.919 296.507 290.919 295.619C290.919 294.73 290.6 294.126 289.962 293.807ZM286.646 309.632C283.388 309.632 280.58 308.601 278.221 306.539C275.703 304.352 274.444 301.6 274.444 298.285C274.444 294.958 275.624 292.241 277.982 290.133C280.34 288.014 283.251 286.954 286.715 286.954C290.178 286.954 293.089 287.991 295.448 290.064C297.806 292.127 298.991 294.889 299.002 298.353C299.014 300.575 298.45 302.54 297.311 304.249C296.171 305.958 294.65 307.28 292.748 308.214C290.845 309.148 288.811 309.621 286.646 309.632Z" fill="black"/>
<g clip-path="url(#clip0_16_32)">
<path d="M144.877 124.946C143.28 125.32 144.3 125.252 142.974 125.422C137.299 126.645 141.513 127.733 144.877 124.946ZM244.689 127.223C245.097 126.951 246.525 125.558 242.073 124.198C242.345 125.592 241.155 125.456 241.155 126.238C244.452 129.228 245.811 134.428 250.025 135.515C250.841 131.777 246.287 129.942 244.689 127.223ZM141.853 123.859C142.363 126.883 144.639 120.664 144.673 118.455C143.79 118.965 142.906 119.475 141.989 119.882C144.13 120.97 142.261 122.125 139.95 123.859C135.26 129.704 144.334 119.305 141.853 123.859ZM200 86C151.946 86 113 124.946 113 173C113 221.02 151.946 260 200 260C248.054 260 287 221.02 287 173C287 124.946 248.054 86 200 86ZM202.311 115.159L202.719 115.295C201.087 117.402 211.215 123.553 203.942 124.062C197.145 126 206.797 122.295 201.529 122.941C204.316 119.067 199.32 118.999 202.311 115.159ZM161.054 120.732C158.607 118.693 150.927 123.519 153.611 122.363C160.272 119.746 154.053 122.635 155.616 125.762C154.189 128.718 155.141 122.839 151.606 126.339C149.057 126.917 142.804 132.695 143.586 130.927C143.382 133.68 136.143 136.943 135.158 141.53C132.779 147.886 134.58 141.293 134.138 138.812C130.74 134.496 124.555 146.118 126.39 150.706C129.482 145.269 129.245 150.129 127.002 152.541C129.279 156.721 124.929 162.159 129.245 165.252C131.148 165.693 134.954 158.863 133.289 165.965C134.444 159.814 136.483 167.427 139.78 165.727C139.984 168.956 141.989 167.461 142.43 171.369C147.936 170.961 152.966 180.273 146.407 182.04C147.392 181.768 149.329 183.501 151.572 182.176C155.379 185.2 165.404 185.574 165.676 193.051C158.777 196.347 163.977 205.387 157.995 208.616C151.13 207.596 155.65 217.078 152.762 215.99C153.917 222.821 145.829 215.107 148.955 218.879C154.699 222.413 146.441 221.7 149.023 224.282C146.135 223.671 150.825 229.652 151.606 231.861C155.752 238.59 148.038 230.366 145.761 228.123C143.586 223.773 138.454 215.446 137.027 208.616C136.211 198.692 128.531 192.031 126.764 182.346C124.996 176.942 131.623 168.276 128.055 165.252C124.962 162.839 126.22 154.58 124.385 150.23C128.973 130.35 143.552 113.595 161.054 103.672C159.253 104.997 171.351 100.239 169.958 101.395C169.584 102.245 177.027 98.1664 181.513 97.5547C181.037 97.6227 169.856 101.633 172.948 101.089C168.157 103.434 172.473 102.109 174.852 100.919C170.094 104.42 166.423 103.434 161.02 106.527C155.582 107.954 156.704 113.595 152.83 116.416C155.107 116.824 160.816 110.537 164.146 108.328C171.793 104.623 160.272 115.057 167.545 110.571C165.098 112.848 165.608 116.484 164.112 117.504C163.365 117.3 167.069 119.271 161.054 120.732ZM172.948 105.099C172.167 106.153 171.079 108.43 170.434 107.036C169.55 107.478 169.21 109.381 167.545 107.852C168.53 107.138 169.55 105.439 167.613 106.493C168.496 105.541 176.381 102.856 175.939 101.837C177.332 100.953 177.196 100.511 175.599 101.055C174.784 100.783 177.536 98.4723 181.207 98.1664C181.716 98.1664 181.92 98.5063 181.003 98.4043C175.463 100.104 177.842 99.6277 181.58 98.4043C180.153 99.2199 179.168 99.4578 178.93 99.8316C182.668 98.4723 178.726 100.817 179.575 100.647C178.522 101.191 179.745 101.361 177.706 102.143C178.08 101.837 174.376 104.352 176.585 103.604C174.444 105.643 173.492 105.677 172.948 105.099ZM176.211 109.959C176.279 106.696 180.969 104.623 180.391 104.454C186.168 101.735 178.386 104.555 182.94 102.109C184.639 101.939 188.241 96.5012 193.237 96.1613C198.743 94.4961 196.194 96.2633 200.272 94.7L199.456 95.3797C198.743 95.4816 199.626 96.7391 197.043 98.6422C196.771 101.599 192.116 100.239 194.427 103.4C192.931 101.259 190.688 103.332 193.509 103.536C190.484 105.847 183.45 106.255 180.085 110.095C177.91 113.221 175.905 112.236 176.211 109.959ZM200.374 120.834C198.063 126.407 195.82 120.018 199.898 118.999C200.918 119.543 201.325 119.713 200.374 120.834ZM191.674 109.687C190.994 107.172 191.538 108.498 195.582 107.308C198.369 109.313 193.101 110.639 191.674 109.687ZM254.953 209.431C251.758 203.926 258.827 198.828 261.206 194.206C260.9 199.61 260.22 204.945 254.953 209.431ZM266.983 146.526C263.517 146.798 260.39 147.614 257.264 145.643C250.059 137.758 258.589 154.546 260.968 147.682C269.532 150.944 260.832 165.014 255.429 163.552C252.404 157.027 248.666 149.857 242.073 146.662C247.136 152.27 249.651 159.168 255.089 164.232C255.463 171.301 262.633 161.649 262.191 167.121C262.871 176.534 251.554 182.176 253.525 191.623C257.739 200.221 245.403 201.785 246.796 209.499C241.835 215.039 236.533 222.515 227.629 221.326C227.629 216.636 225.25 212.66 224.707 207.834C219.881 201.717 229.804 195.158 223.653 188.769C216.55 187.171 225.114 177.384 217.808 178.302C213.424 173.918 207.001 178.166 200.714 178.2C192.829 178.947 184.707 168.514 188.207 161.139C185.421 153.459 197.043 151.216 197.349 144.453C202.923 139.797 210.841 140.375 218.386 139.288C217.842 144.691 223.551 144.725 227.867 146.526C230.28 140.681 237.791 147.478 242.922 143.773C244.689 135.141 237.927 140.341 234.052 137.588C229.363 130.723 244.078 134.054 242.548 130.452C236.839 130.418 240.068 123.417 236.023 127.325C239.66 127.971 235.378 130.825 235.48 127.563C229.974 125.966 235.276 133.816 232.489 134.564C228.241 132.796 230.246 136.569 230.688 137.146C228.853 141.123 226.61 131.301 221.41 131.573C216.245 126.849 219.371 133.714 223.857 134.836C222.905 135.107 224.401 139.016 223.211 137.35C219.507 132.253 212.472 128.854 208.292 135.107C207.85 140.953 195.956 142.618 197.859 135.787C195.072 128.718 206.491 135.583 205.438 129.942C198.097 125.082 207.443 126.645 209.923 122.091C215.565 122.261 210.161 117.47 212.812 116.076C212.54 121.276 217.128 120.29 220.764 119.305C219.881 116.314 222.939 116.416 221.07 113.935C229.498 110.571 214.647 115.498 217.638 108.124C214.002 105.609 216.109 113.663 217.638 114.513C217.74 116.994 215.633 120.052 212.744 114.853C208.53 117.605 208.972 112.066 208.7 112.644C208.224 110.503 211.895 110.401 211.929 106.662C211.623 104.284 211.691 103.026 213.39 102.89C213.526 103.23 220.357 103.332 222.77 106.153C216.177 104.827 221.784 107.24 224.741 108.6C221.58 106.119 225.998 108.6 223.415 105.779C224.435 105.983 220.595 101.905 224.537 105.473C222.396 102.924 228.717 103.672 224.979 101.769C230.45 103.298 227.221 101.905 223.993 100.511C215.089 95.2098 239.728 107.682 229.668 102.143C236.091 103.536 215.939 97.1809 225.114 99.9676C221.614 98.4383 225.012 99.2879 228.173 100.273C222.498 98.5063 214.002 95.2098 214.341 95.0738C216.313 95.2098 218.25 95.6516 220.119 96.1953C225.93 97.9285 218.454 95.7875 220.051 95.8215C240.034 100.953 257.536 114.343 268.173 131.845C270.654 134.462 277.416 151.76 273.882 144.079C275.479 150.196 275.717 156.789 276.567 163.043C274.8 161.071 272.829 153.799 271.129 149.755C270.416 151.318 269.6 147.546 266.983 146.526Z" fill="#226699"/>
</g>
<defs>
<clipPath id="clip0_16_32">
<rect width="174" height="174" fill="white" transform="translate(113 86)"/>
</clipPath>
</defs>
</svg>
