<svg width="400" height="400" viewBox="0 0 400 400" fill="none" xmlns="http://www.w3.org/2000/svg">
<circle cx="200" cy="200" r="198.5" fill="white" stroke="black" stroke-width="3"/>
<path d="M221.562 213.292L233.346 201.513L283.425 251.592L271.642 263.371L221.562 213.292Z" fill="#616161"/>
<path d="M183.333 230C220.152 230 250 200.152 250 163.333C250 126.514 220.152 96.6667 183.333 96.6667C146.514 96.6667 116.667 126.514 116.667 163.333C116.667 200.152 146.514 230 183.333 230Z" fill="#616161"/>
<path d="M235.208 227.25L246.987 215.467L283.221 251.7L271.437 263.483L235.208 227.25Z" fill="#37474F"/>
<path d="M183.333 217.5C213.249 217.5 237.5 193.249 237.5 163.333C237.5 133.418 213.249 109.167 183.333 109.167C153.418 109.167 129.167 133.418 129.167 163.333C129.167 193.249 153.418 217.5 183.333 217.5Z" fill="#226699"/>
<path d="M212.083 139.167C205 130.833 194.583 125.833 183.333 125.833C172.083 125.833 161.667 130.833 154.583 139.167C152.917 140.833 153.333 143.75 155 145C156.667 146.667 159.583 146.25 160.833 144.583C166.667 137.917 174.583 134.167 183.333 134.167C192.083 134.167 200 137.917 205.833 144.583C206.667 145.417 207.917 146.25 209.167 146.25C210 146.25 211.25 145.833 211.667 145.417C213.333 143.75 213.333 140.833 212.083 139.167Z" fill="#BBDEFB"/>
<path d="M102.102 276.776C107.753 276.218 112.026 275.938 114.919 275.938C117.813 275.938 120.103 276.149 121.79 276.571C123.487 276.992 124.883 277.647 125.977 278.536C128.096 280.268 129.155 283.111 129.155 287.064C129.155 288.841 128.819 290.471 128.147 291.952C127.475 293.433 126.558 294.703 125.396 295.763C124.233 296.822 122.872 297.648 121.311 298.241C119.75 298.833 118.081 299.129 116.304 299.129L113.262 299.061V304H102.102V276.776ZM117.5 283.031C116.52 283.031 115.085 283.709 113.193 285.064V291.507L115.193 290.533C116.514 289.884 117.437 289.263 117.961 288.67C118.941 287.565 119.431 286.466 119.431 285.372C119.431 284.278 119.061 283.555 118.32 283.202C118.081 283.088 117.808 283.031 117.5 283.031ZM145.903 288.841C145.903 287.839 145.436 287.337 144.502 287.337C143.431 287.44 142.736 287.993 142.417 288.995C142.257 289.474 142.144 290.032 142.075 290.67C142.018 291.297 141.927 291.969 141.802 292.687L145.544 291.849L145.869 289.234L145.903 288.841ZM143.596 296.617C143.596 296.617 143.283 296.617 142.656 296.617C142.36 296.617 142.075 296.606 141.802 296.583C141.802 297.939 142.525 298.679 143.972 298.805C144.371 298.839 144.758 298.856 145.134 298.856C146.103 298.856 147.316 298.634 148.774 298.189C150.244 297.745 151.56 297.022 152.722 296.019L153.782 301.334C151.241 303.533 147.402 304.632 142.263 304.632C139.312 304.632 136.777 303.772 134.658 302.052C132.357 300.172 131.206 297.569 131.206 294.242C131.206 291.735 131.855 289.485 133.154 287.491C134.362 285.668 135.997 284.284 138.059 283.338C140.121 282.393 142.349 281.92 144.741 281.92C147.84 281.92 150.181 282.598 151.765 283.954C153.36 285.309 154.152 286.984 154.141 288.978C154.141 290.972 153.189 292.743 151.287 294.293C149.384 295.842 146.82 296.617 143.596 296.617ZM173.452 289.132C170.923 288.539 169.083 288.243 167.932 288.243C167.602 288.243 167.345 288.317 167.163 288.465C166.992 288.613 166.907 288.779 166.907 288.961C166.907 289.337 167.374 289.719 168.308 290.106C169.254 290.482 170.12 290.852 170.906 291.217C171.692 291.581 172.37 292.026 172.939 292.55C174.17 293.689 174.785 295.387 174.785 297.643C174.785 299.887 173.971 301.613 172.341 302.821C170.712 304.028 168.507 304.632 165.728 304.632C162.948 304.632 160.726 304.376 159.062 303.863C158.333 303.647 157.775 303.39 157.388 303.094V296.754C157.547 296.765 157.826 296.839 158.225 296.976C158.624 297.113 159.285 297.329 160.208 297.625C161.13 297.91 161.968 298.053 162.72 298.053C163.483 298.053 163.865 297.774 163.865 297.215C163.865 296.782 163.523 296.361 162.839 295.951C162.532 295.768 162.184 295.58 161.797 295.387C160.19 294.601 159.04 293.695 158.345 292.669C157.661 291.633 157.319 290.419 157.319 289.029C157.319 286.557 158.322 284.711 160.327 283.492C162.013 282.467 164.218 281.954 166.941 281.954C168.844 281.954 170.752 282.142 172.666 282.518C173.076 282.598 173.338 282.655 173.452 282.689V289.132ZM187.209 282.689C188.839 282.267 190.964 282.057 193.584 282.057C196.216 282.057 199.446 282.37 203.274 282.997V309.571H194.028V301.83C192.616 303.208 190.838 304.091 188.696 304.479C188.127 304.581 187.62 304.632 187.175 304.632C184.088 304.632 181.701 303.641 180.015 301.659C178.328 299.665 177.485 297.238 177.485 294.378C177.485 291.519 178.403 288.961 180.237 286.705C181.764 284.837 184.088 283.498 187.209 282.689ZM194.062 289.2C193.675 288.961 193.254 288.841 192.798 288.841C192.354 288.841 191.915 288.932 191.482 289.115C191.06 289.297 190.656 289.542 190.269 289.85C189.437 290.488 188.753 291.302 188.218 292.293C187.694 293.273 187.426 294.259 187.415 295.25C187.415 296.23 187.716 296.913 188.32 297.301C188.537 297.438 188.799 297.512 189.106 297.523C190.588 297.523 192.24 296.777 194.062 295.284V289.2ZM217.493 292.652C217.493 296.389 218.398 298.258 220.21 298.258C221.121 298.258 221.651 297.813 221.799 296.925C221.845 296.651 221.868 296.349 221.868 296.019V282.757H232.019V304H226.414L223.97 300.667C222.523 302.639 220.432 303.92 217.698 304.513C214.348 305.23 211.648 304.661 209.597 302.804C208.048 301.402 207.273 299.551 207.273 297.25V282.757H217.493V292.652ZM241.384 272.914C243.059 272.914 244.301 273.267 245.11 273.973C245.919 274.668 246.318 275.557 246.306 276.639C246.306 277.722 245.788 278.718 244.751 279.63C243.726 280.541 242.353 280.997 240.632 280.997C238.217 280.997 236.713 280.268 236.121 278.81C235.95 278.399 235.864 277.944 235.864 277.442C235.864 276.941 235.984 276.417 236.223 275.87C236.462 275.323 236.821 274.833 237.3 274.4C238.359 273.409 239.721 272.914 241.384 272.914ZM246.016 304H236.121V282.757H246.016V304ZM265.874 289.132C263.345 288.539 261.505 288.243 260.354 288.243C260.024 288.243 259.767 288.317 259.585 288.465C259.414 288.613 259.329 288.779 259.329 288.961C259.329 289.337 259.796 289.719 260.73 290.106C261.676 290.482 262.542 290.852 263.328 291.217C264.114 291.581 264.792 292.026 265.361 292.55C266.592 293.689 267.207 295.387 267.207 297.643C267.207 299.887 266.392 301.613 264.763 302.821C263.134 304.028 260.929 304.632 258.149 304.632C255.369 304.632 253.148 304.376 251.484 303.863C250.755 303.647 250.197 303.39 249.81 303.094V296.754C249.969 296.765 250.248 296.839 250.647 296.976C251.046 297.113 251.707 297.329 252.629 297.625C253.552 297.91 254.39 298.053 255.142 298.053C255.905 298.053 256.287 297.774 256.287 297.215C256.287 296.782 255.945 296.361 255.261 295.951C254.954 295.768 254.606 295.58 254.219 295.387C252.612 294.601 251.462 293.695 250.767 292.669C250.083 291.633 249.741 290.419 249.741 289.029C249.741 286.557 250.744 284.711 252.749 283.492C254.435 282.467 256.64 281.954 259.363 281.954C261.265 281.954 263.174 282.142 265.088 282.518C265.498 282.598 265.76 282.655 265.874 282.689V289.132ZM273.069 302.12C272.157 301.266 271.428 300.195 270.881 298.907C270.346 297.608 270.078 296.213 270.078 294.72C270.078 293.228 270.226 291.935 270.522 290.841C271.115 288.665 272.152 286.836 273.633 285.355C274.339 284.626 275.125 284.011 275.991 283.509C277.769 282.472 279.643 281.954 281.614 281.954C283.596 281.954 285.334 282.609 286.826 283.919C287.305 284.341 287.721 284.825 288.074 285.372L290.518 282.757H296.123V304H290.518L288.074 300.462C286.205 303.22 283.374 304.604 279.58 304.615C278.532 304.627 277.41 304.422 276.213 304C275.028 303.59 273.98 302.963 273.069 302.12ZM286.912 289.2C286.501 288.961 286.012 288.841 285.442 288.841C284.872 288.841 284.268 289.046 283.63 289.457C283.004 289.855 282.44 290.362 281.938 290.978C280.822 292.356 280.264 293.757 280.264 295.182C280.264 296.184 280.571 296.891 281.187 297.301C281.756 297.677 282.622 297.625 283.784 297.147C284.958 296.657 286 296.025 286.912 295.25V289.2Z" fill="black"/>
</svg>
