<svg width="400" height="400" viewBox="0 0 400 400" fill="none" xmlns="http://www.w3.org/2000/svg">
<circle cx="200" cy="200" r="198.5" fill="white" stroke="black" stroke-width="3"/>
<path d="M130.102 276.708H149.772V284.569H140.732V286.808H149.738V293.507H140.732V296.087H150.371V304H130.102V276.708ZM165.922 288.534C165.011 288.534 164.555 289.269 164.555 290.738V304H154.404V282.757H160.009L162.453 286.073C163.365 284.808 164.624 283.806 166.23 283.065C167.848 282.324 169.357 281.954 170.759 281.954C173.334 281.954 175.373 282.638 176.877 284.005C178.392 285.372 179.15 287.206 179.15 289.508V304H168.93V293.746C168.93 290.271 167.928 288.534 165.922 288.534ZM198.854 289.132C196.325 288.539 194.485 288.243 193.334 288.243C193.004 288.243 192.748 288.317 192.565 288.465C192.395 288.613 192.309 288.779 192.309 288.961C192.309 289.337 192.776 289.719 193.71 290.106C194.656 290.482 195.522 290.852 196.308 291.217C197.094 291.581 197.772 292.026 198.342 292.55C199.572 293.689 200.188 295.387 200.188 297.643C200.188 299.887 199.373 301.613 197.744 302.821C196.114 304.028 193.91 304.632 191.13 304.632C188.35 304.632 186.128 304.376 184.465 303.863C183.736 303.647 183.177 303.39 182.79 303.094V296.754C182.95 296.765 183.229 296.839 183.627 296.976C184.026 297.113 184.687 297.329 185.61 297.625C186.533 297.91 187.37 298.053 188.122 298.053C188.885 298.053 189.267 297.774 189.267 297.215C189.267 296.782 188.925 296.361 188.242 295.951C187.934 295.768 187.587 295.58 187.199 295.387C185.593 294.601 184.442 293.695 183.747 292.669C183.063 291.633 182.722 290.419 182.722 289.029C182.722 286.557 183.724 284.711 185.729 283.492C187.416 282.467 189.62 281.954 192.343 281.954C194.246 281.954 196.154 282.142 198.068 282.518C198.479 282.598 198.741 282.655 198.854 282.689V289.132ZM208.955 272.914C210.629 272.914 211.871 273.267 212.68 273.973C213.489 274.668 213.888 275.557 213.876 276.639C213.876 277.722 213.358 278.718 212.321 279.63C211.296 280.541 209.923 280.997 208.203 280.997C205.787 280.997 204.283 280.268 203.691 278.81C203.52 278.399 203.435 277.944 203.435 277.442C203.435 276.941 203.554 276.417 203.793 275.87C204.033 275.323 204.392 274.833 204.87 274.4C205.93 273.409 207.291 272.914 208.955 272.914ZM213.586 304H203.691V282.757H213.586V304ZM229.257 288.534C228.346 288.534 227.89 289.269 227.89 290.738V304H217.739V282.757H223.344L225.788 286.073C226.7 284.808 227.958 283.806 229.565 283.065C231.183 282.324 232.692 281.954 234.094 281.954C236.669 281.954 238.708 282.638 240.212 284.005C241.727 285.372 242.485 287.206 242.485 289.508V304H232.265V293.746C232.265 290.271 231.263 288.534 229.257 288.534ZM261.198 288.807C260.97 288.693 260.674 288.636 260.31 288.636C259.956 288.636 259.563 288.744 259.13 288.961C258.697 289.166 258.27 289.451 257.849 289.815C256.96 290.59 256.214 291.53 255.61 292.635C255.006 293.74 254.704 294.76 254.704 295.694C254.704 296.617 255.057 297.238 255.764 297.557C256.014 297.671 256.322 297.728 256.687 297.728C257.051 297.728 257.433 297.62 257.832 297.403C258.23 297.175 258.629 296.874 259.028 296.498C259.86 295.711 260.589 294.76 261.215 293.644C261.842 292.516 262.155 291.507 262.155 290.619C262.155 289.73 261.836 289.126 261.198 288.807ZM257.883 304.632C254.624 304.632 251.816 303.601 249.458 301.539C246.94 299.352 245.681 296.6 245.681 293.285C245.681 289.958 246.86 287.241 249.218 285.133C251.577 283.014 254.488 281.954 257.951 281.954C261.415 281.954 264.326 282.991 266.684 285.064C269.042 287.127 270.227 289.889 270.239 293.353C270.25 295.575 269.686 297.54 268.547 299.249C267.408 300.958 265.887 302.28 263.984 303.214C262.081 304.148 260.048 304.621 257.883 304.632Z" fill="black"/>
<g clip-path="url(#clip0_16_31)">
<path d="M277.778 117.889H122.222C116.329 117.889 110.676 120.23 106.509 124.398C102.341 128.565 100 134.217 100 140.111V223.444C100 229.338 102.341 234.99 106.509 239.158C110.676 243.325 116.329 245.667 122.222 245.667H185.644C188.533 248.978 193.85 251.222 200 251.222C206.15 251.222 211.472 248.978 214.356 245.667H277.778C283.671 245.667 289.324 243.325 293.491 239.158C297.659 234.99 300 229.338 300 223.444V140.111C300 134.217 297.659 128.565 293.491 124.398C289.324 120.23 283.671 117.889 277.778 117.889Z" fill="#226699"/>
<path d="M211.111 229C211.111 231.947 209.941 234.773 207.857 236.857C205.773 238.94 202.947 240.111 200 240.111C197.053 240.111 194.227 238.94 192.143 236.857C190.06 234.773 188.889 231.947 188.889 229V129C188.889 126.053 190.06 123.227 192.143 121.143C194.227 119.06 197.053 117.889 200 117.889C202.947 117.889 205.773 119.06 207.857 121.143C209.941 123.227 211.111 126.053 211.111 129V229Z" fill="#292F33"/>
<path d="M200 223.444C200 226.391 198.829 229.217 196.746 231.301C194.662 233.385 191.836 234.556 188.889 234.556H122.222C119.275 234.556 116.449 233.385 114.365 231.301C112.282 229.217 111.111 226.391 111.111 223.444V123.444C111.111 120.498 112.282 117.671 114.365 115.588C116.449 113.504 119.275 112.333 122.222 112.333H188.889C191.836 112.333 194.662 113.504 196.746 115.588C198.829 117.671 200 120.498 200 123.444V223.444Z" fill="#99AAB5"/>
<path d="M200 223.444C194.45 212.344 179.683 212.333 177.778 212.333C166.667 212.333 150 223.444 133.333 223.444C127.778 223.444 122.222 218.467 122.222 212.333V123.444C122.222 117.311 127.778 112.333 133.333 112.333C151.417 112.333 166.667 101.222 177.778 101.222C194.444 101.222 200 111.756 200 117.889V223.444Z" fill="#E1E8ED"/>
<path d="M288.889 223.444C288.889 226.391 287.718 229.217 285.635 231.301C283.551 233.385 280.725 234.556 277.778 234.556H211.111C208.164 234.556 205.338 233.385 203.254 231.301C201.171 229.217 200 226.391 200 223.444V123.444C200 120.498 201.171 117.671 203.254 115.588C205.338 113.504 208.164 112.333 211.111 112.333H277.778C280.725 112.333 283.551 113.504 285.635 115.588C287.718 117.671 288.889 120.498 288.889 123.444V223.444Z" fill="#99AAB5"/>
<path d="M200 223.444C205.55 212.344 220.317 212.333 222.222 212.333C233.333 212.333 250 223.444 266.667 223.444C272.222 223.444 277.778 218.467 277.778 212.333V123.444C277.778 117.311 272.222 112.333 266.667 112.333C248.578 112.333 233.333 101.222 222.222 101.222C205.556 101.222 200 111.756 200 117.889V223.444Z" fill="#CCD6DD"/>
</g>
<defs>
<clipPath id="clip0_16_31">
<rect width="200" height="200" fill="white" transform="translate(100 79)"/>
</clipPath>
</defs>
</svg>
