<svg width="320" height="343" viewBox="0 0 320 343" fill="none" xmlns="http://www.w3.org/2000/svg">
<path d="M2.90438 65.4L22.0084 19.992L21.7204 19.32H4.92038V7.8H25.6564C31.2244 10.168 34.0084 13.944 34.0084 19.128C34.0084 21.944 33.3044 25.144 31.8964 28.728C31.5124 29.816 31.1924 30.712 30.9364 31.416C30.6804 32.12 30.2644 33.144 29.6884 34.488C29.1124 35.768 28.6964 36.728 28.4404 37.368C27.3524 39.864 26.3284 42.168 25.3684 44.28L16.7284 63.864H33.5284V75H2.90438V65.4ZM46.8904 0.695995H55.9144C61.0344 3.192 63.5944 7.352 63.5944 13.176C63.5944 15.672 62.9224 18.04 61.5784 20.28C60.2344 22.52 58.3464 24.184 55.9144 25.272H46.8904C44.4584 24.184 42.5704 22.52 41.2264 20.28C39.8824 18.04 39.2104 15.672 39.2104 13.176C39.2104 7.352 41.7704 3.192 46.8904 0.695995ZM49.8664 17.592H52.9384C54.0904 16.44 54.6664 14.904 54.6664 12.984C54.6664 11 54.0904 9.464 52.9384 8.376H49.8664C48.7144 9.464 48.1384 11 48.1384 12.984C48.1384 14.904 48.7144 16.44 49.8664 17.592ZM86.4986 75V7.8H120.963V19.32H99.6506V35.352H118.659V46.488H99.6506V63.864H121.347V75H86.4986ZM165.452 75H155.756L154.028 71.544C152.62 72.824 151.276 73.72 149.996 74.232C148.78 74.744 146.924 75 144.428 75H136.076C133.26 72.312 131.02 68.792 129.356 64.44C127.756 60.088 126.956 55.224 126.956 49.848C126.956 44.408 127.756 39.8 129.356 36.024C131.02 32.248 133.356 28.888 136.364 25.944H144.62C148.012 25.944 150.7 26.84 152.684 28.632V7.8H165.452V75ZM152.684 36.024H143.468C141.1 40.056 139.916 45.016 139.916 50.904C139.916 56.728 141.068 61.4 143.372 64.92H152.684V36.024ZM173.675 75V25.944H186.347V75H173.675ZM173.675 7.8H186.347V20.76H173.675V7.8ZM210.229 87.672H207.829V80.76L210.325 75H204.565C197.013 68.984 193.237 60.664 193.237 50.04C193.237 39.416 197.269 31.384 205.333 25.944H225.589V36.024H211.189C208.053 39.288 206.485 43.96 206.485 50.04C206.485 52.728 206.901 55.48 207.733 58.296C208.565 61.048 209.717 63.256 211.189 64.92H225.589V75H218.485L216.277 80.76C217.237 81.592 217.941 82.296 218.389 82.872C219.797 84.536 220.501 86.584 220.501 89.016C220.501 91.448 219.925 93.592 218.773 95.448C217.621 97.304 216.149 98.808 214.357 99.96H205.909V92.184H210.229C210.805 91.8 211.093 91.064 211.093 89.976C211.157 88.888 210.869 88.12 210.229 87.672ZM254.655 52.824H244.383C243.039 54.488 242.367 56.568 242.367 59.064C242.367 61.56 243.071 63.512 244.479 64.92H254.655V52.824ZM234.015 25.944H257.823C261.663 28.248 264.191 30.904 265.407 33.912C266.623 36.856 267.231 40.888 267.231 46.008V60.408C267.231 65.72 267.359 70.584 267.615 75H256.671L254.943 71.544C252.447 73.848 248.927 75 244.383 75H238.335C232.895 71.416 230.175 66.264 230.175 59.544C230.175 52.76 232.959 47.416 238.527 43.512H247.551C250.047 43.512 252.383 44.28 254.559 45.816V41.016C254.559 38.52 253.471 36.856 251.295 36.024H234.015V25.944ZM253.023 21.528L243.807 19.128C242.463 19.128 239.839 19.864 235.935 21.336V11.736C240.031 10.008 242.783 9.144 244.191 9.144L253.503 11.736C254.783 11.736 257.311 11.288 261.087 10.392V20.184C257.183 21.144 254.495 21.592 253.023 21.528ZM304.671 75H283.743C277.343 69.048 274.143 60.92 274.143 50.616C274.143 45.432 274.847 40.92 276.255 37.08C277.727 33.24 280.031 29.528 283.167 25.944H305.631C308.959 29.784 311.231 33.528 312.447 37.176C313.663 40.76 314.271 45.24 314.271 50.616C314.271 60.92 311.071 69.048 304.671 75ZM290.559 64.92H297.855C300.159 60.44 301.311 55.352 301.311 49.656C301.311 43.96 300.127 39.416 297.759 36.024H290.559C288.255 39.288 287.103 43.928 287.103 49.944C287.103 55.896 288.255 60.888 290.559 64.92ZM15.9049 141.8H41.4409C45.4729 143.144 48.8969 145.64 51.7129 149.288C54.5929 152.872 56.0329 157.288 56.0329 162.536C56.0329 171.112 52.6409 177.416 45.8569 181.448L55.5529 209H42.1129L33.9529 184.52H28.8649V209H15.9049V141.8ZM28.8649 153.32V173.768H37.1209C38.2089 173.512 39.3929 172.424 40.6729 170.504C42.0169 168.52 42.6889 166.216 42.6889 163.592C42.6889 160.968 42.1129 158.664 40.9609 156.68C39.8729 154.696 38.7849 153.576 37.6969 153.32H28.8649ZM62.9674 209V141.8H97.4314V153.32H76.1194V169.352H95.1274V180.488H76.1194V197.864H97.8154V209H62.9674ZM146.433 141.8L132.801 209H114.753L101.121 141.8H114.945L120.225 172.904L123.489 193.064H124.065L127.329 172.904L132.609 141.8H146.433ZM151.561 209V141.8H164.713V209H151.561ZM180.111 141.8H203.151V153.32H184.719L184.431 153.896L199.791 181.928C202.927 187.56 204.495 191.848 204.495 194.792C204.495 201.256 202.351 205.992 198.063 209H172.623V197.864H192.495L192.783 197.288L175.503 166.28C173.007 161.8 171.759 158.152 171.759 155.336C171.759 148.68 174.543 144.168 180.111 141.8ZM222.034 153.32H207.538V141.8H249.586V153.32H235.09V209H222.034V153.32ZM277.482 209L275.466 198.344H260.298L258.282 209H245.226L258.186 141.8H278.058L290.346 209H277.482ZM267.69 154.28L263.946 176.648L261.834 188.072H273.834L271.626 176.648L267.882 154.28H267.69ZM13.4899 287.32V311.32H22.0339C25.5539 308.44 27.3139 304.216 27.3139 298.648C27.3139 296.28 26.8339 294.04 25.8739 291.928C24.9779 289.816 23.8899 288.28 22.6099 287.32H13.4899ZM0.529875 343V275.8H26.5459C30.8979 277.72 34.3219 280.664 36.8179 284.632C39.3779 288.6 40.6579 293.24 40.6579 298.552C40.6579 303.8 39.3459 308.664 36.7219 313.144C34.0979 317.624 30.2259 320.792 25.1059 322.648H13.4899V343H0.529875ZM47.6861 343V275.8H82.1501V287.32H60.8381V303.352H79.8461V314.488H60.8381V331.864H82.5341V343H47.6861ZM100.815 287.32H86.3194V275.8H128.367V287.32H113.871V343H100.815V287.32ZM149.185 331.864H166.081V343H141.697C137.473 339.032 134.273 334.008 132.097 327.928C129.921 321.848 128.833 315.608 128.833 309.208C128.833 302.744 130.049 296.536 132.481 290.584C134.913 284.632 138.529 279.704 143.329 275.8H166.081V287.32H149.185C147.457 289.304 145.953 292.504 144.673 296.92C143.457 301.336 142.849 305.56 142.849 309.592C142.849 313.624 143.457 317.848 144.673 322.264C145.953 326.68 147.457 329.88 149.185 331.864ZM201.982 275.8C206.462 279.448 209.79 284.344 211.966 290.488C214.142 296.632 215.23 302.968 215.23 309.496C215.23 315.96 214.174 322.104 212.062 327.928C209.95 333.752 206.59 338.776 201.982 343H182.206C177.598 338.776 174.238 333.752 172.126 327.928C170.014 322.104 168.958 315.96 168.958 309.496C168.958 302.968 170.046 296.632 172.222 290.488C174.398 284.344 177.726 279.448 182.206 275.8H201.982ZM188.638 331.864H195.55C197.15 330.008 198.494 327 199.582 322.84C200.734 318.616 201.31 314.168 201.31 309.496C201.31 304.824 200.766 300.44 199.678 296.344C198.59 292.184 197.246 289.176 195.646 287.32H188.638C187.038 289.176 185.662 292.184 184.51 296.344C183.422 300.44 182.878 304.824 182.878 309.496C182.878 314.168 183.422 318.616 184.51 322.84C185.662 327 187.038 330.008 188.638 331.864ZM246.26 312.28H245.876H246.26L251.348 291.256L255.476 275.8H267.476L271.796 343H259.22L257.396 306.328H256.916L250.004 333.4H242.132L235.22 306.328H234.74L232.916 343H220.34L224.66 275.8H236.66L240.788 291.256L245.876 312.28H246.26ZM292.49 287.32V311.32H301.034C304.554 308.44 306.314 304.216 306.314 298.648C306.314 296.28 305.834 294.04 304.874 291.928C303.978 289.816 302.89 288.28 301.61 287.32H292.49ZM279.53 343V275.8H305.546C309.898 277.72 313.322 280.664 315.818 284.632C318.378 288.6 319.658 293.24 319.658 298.552C319.658 303.8 318.346 308.664 315.722 313.144C313.098 317.624 309.226 320.792 304.106 322.648H292.49V343H279.53Z" fill="white"/>
</svg>
