<?xml version="1.0" encoding="UTF-8" standalone="no"?>
<svg
   width="219"
   height="219"
   viewBox="0 0 219 219"
   fill="none"
   version="1.1"
   id="svg34"
   sodipodi:docname="logo.svg"
   inkscape:version="1.2 (dc2aedaf03, 2022-05-15)"
   xmlns:inkscape="http://www.inkscape.org/namespaces/inkscape"
   xmlns:sodipodi="http://sodipodi.sourceforge.net/DTD/sodipodi-0.dtd"
   xmlns="http://www.w3.org/2000/svg"
   xmlns:svg="http://www.w3.org/2000/svg">
  <defs
     id="defs38" />
  <sodipodi:namedview
     id="namedview36"
     pagecolor="#ffffff"
     bordercolor="#000000"
     borderopacity="0.25"
     inkscape:showpageshadow="2"
     inkscape:pageopacity="0.0"
     inkscape:pagecheckerboard="0"
     inkscape:deskcolor="#d1d1d1"
     showgrid="false"
     inkscape:zoom="2.7380208"
     inkscape:cx="73.410692"
     inkscape:cy="126.55127"
     inkscape:window-width="1920"
     inkscape:window-height="1020"
     inkscape:window-x="0"
     inkscape:window-y="23"
     inkscape:window-maximized="1"
     inkscape:current-layer="svg34" />
  <g
     id="g893"
     transform="translate(6.3653101,0.24076591)">
    <path
       d="m 0.028604,209.463 c 0.0307408,-0.185 0.0307398,-0.277 0.0614806,-0.461 0.3688884,-1.199 1.1374054,-3.443 2.2748154,-6.671 2.3363,-6.732 5.28741,-13.311 8.0233,-19.889 1.783,-4.273 3.5967,-8.577 5.5641,-12.788 0.3074,-0.585 0.6763,-1.322 1.1067,-2.183 0.3381,-0.646 0.83,-0.953 1.4141,-0.861 0.6148,0.092 1.0144,0.492 1.1681,1.23 0.123,0.461 0.1537,1.26 0.1537,2.428 -0.1537,10.913 -0.1537,21.826 0.2459,32.708 0.0308,0.892 0.0615,2.152 0.123,3.751 0.0615,1.598 0.123,2.797 0.1537,3.504 0.0307,0.738 0,1.322 -0.0615,1.66 -0.0922,0.554 -0.4611,0.861 -1.0452,0.923 -0.584,0.061 -1.0144,-0.185 -1.2603,-0.769 -0.0923,-0.154 -0.123,-0.43 -0.1845,-0.83 -0.0922,-2.89 -0.2767,-5.871 -0.2767,-8.669 0,-0.43 -0.2459,-0.768 -0.7377,-0.953 -0.7685,-0.307 -2.2441,-0.645 -4.4267,-0.953 -0.6456,-0.092 -1.5985,-0.246 -2.7974,-0.461 -1.22963,-0.215 -2.02889,-0.369 -2.39778,-0.43 -0.46111,-0.062 -0.76852,-0.062 -0.89149,0 -0.12296,0.061 -0.27666,0.307 -0.43037,0.676 -1.04518,2.767 -1.99815,5.595 -2.95111,8.392 -0.1537,0.461 -0.33814,0.892 -0.49185,1.261 -0.27666,0.676 -0.83,0.891 -1.567777,0.707 -0.614815,-0.154 -0.891482,-0.615 -0.768519,-1.322 z M 7.99046,197.289 c 1.01444,0.093 2.61294,0.431 4.70334,0.83 1.7522,0.339 2.8589,0.523 3.1663,0.585 0.2459,0.061 0.5841,0.061 0.9222,0.061 0.3689,-0.031 0.5533,-0.215 0.5533,-0.523 0,-0.461 -0.1229,-0.768 -0.4611,-0.86 -1.2296,-0.308 -1.9059,-0.461 -1.9981,-0.461 -1.7215,-0.185 -3.9656,-0.492 -6.57853,-1.015 -0.58408,-0.123 -0.89149,0.215 -1.04519,0.861 -0.03074,0.277 0.18445,0.461 0.73778,0.522 z m 9.28374,-20.842 c -0.0308,-0.061 -0.0308,-1.199 0,-3.412 -0.0923,0.061 -0.1845,0.215 -0.2767,0.43 -0.8607,1.876 -1.7215,3.904 -2.6437,6.026 -0.8915,2.121 -1.8752,4.488 -2.9204,7.07 -1.0452,2.582 -1.9059,4.611 -2.52072,6.025 0,0.031 -0.03074,0.092 -0.09222,0.185 -0.09222,0.338 0.03074,0.553 0.39963,0.584 0.30741,0.061 1.53701,0.246 3.68891,0.522 2.1518,0.308 3.4122,0.369 3.7196,0.369 0.2767,0 0.5226,0.031 0.6148,-0.031 0.0922,-0.061 0.123,-0.246 0.123,-0.553 -0.123,-5.687 -0.2152,-11.436 -0.0922,-17.215 z"
       fill="#212121"
       id="path2" />
    <path
       d="m 25.7586,196.951 c 0.0307,-0.615 0.0615,-1.69 0.2152,-3.043 0.6763,-5.287 2.1826,-10.974 4.98,-15.678 1.5985,-2.674 3.3507,-5.379 5.9637,-7.255 1.7215,-1.229 3.5044,-1.629 5.2259,-1.26 0.953,0.184 1.8137,0.922 2.5822,2.244 0.3997,0.615 0.6456,1.537 0.83,2.675 0.0923,0.614 -0.1537,1.075 -0.7992,1.26 -0.6763,0.215 -1.2296,0 -1.5678,-0.615 -0.0615,-0.184 -0.1537,-0.523 -0.2459,-1.014 -0.0922,-0.523 -0.2459,-1.015 -0.5226,-1.445 -0.2152,-0.246 -0.3689,-0.246 -0.5226,-0.062 -2.3056,2.736 -4.5804,5.749 -5.9637,8.977 -1.6908,4.027 -3.1356,8.361 -3.6889,12.788 -0.3689,2.889 -0.7378,5.902 -0.4304,8.822 0.3382,3.044 1.1067,5.78 2.2441,8.116 0.2459,0.523 0.4611,0.83 0.7378,0.922 0.2459,0.092 0.6455,0 1.1989,-0.246 0.707,-0.338 1.3218,-0.891 1.8137,-1.691 1.0759,-1.66 2.1211,-3.658 3.1355,-5.963 0,-0.031 0.0308,-0.092 0.0923,-0.185 0,-0.092 0.0307,-0.153 0.0922,-0.184 0.3381,-0.676 0.8915,-0.922 1.537,-0.707 0.707,0.215 1.0145,0.738 0.8608,1.475 -0.0923,0.4 -0.3382,0.984 -0.7378,1.783 -1.5678,3.013 -2.6437,4.888 -3.2278,5.626 -0.83,1.014 -1.6907,1.752 -2.6437,2.121 -1.9367,0.769 -3.8426,0.523 -5.5948,-0.799 -1.5063,-1.138 -2.6745,-2.644 -3.5045,-4.519 -1.6292,-3.812 -2.2748,-7.993 -2.0596,-12.143 z m 2.9819,6.425 c 0.1844,1.138 0.4918,2.183 0.9222,3.166 -0.4919,-2.459 -0.6456,-4.826 -0.5226,-7.07 0.1229,-2.336 0.3996,-4.703 0.83,-7.07 0.3996,-2.367 1.0452,-4.673 1.8444,-6.886 0.953,-2.644 1.8445,-4.857 2.736,-6.548 0.7685,-1.506 2.0903,-3.443 3.8118,-5.841 -0.0307,-0.031 -0.0307,-0.031 -0.0615,-0.061 -0.0922,-0.062 -0.1229,-0.092 -0.1229,-0.154 -0.1537,0.184 -0.246,0.307 -0.3997,0.492 -1.414,1.352 -2.5207,2.644 -3.32,3.842 -3.2892,4.95 -4.857,10.698 -5.9329,16.385 -0.6763,3.228 -0.246,6.487 0.2152,9.745 z"
       fill="#212121"
       id="path4" />
    <path
       d="m 65.5371,187.637 c 0.123,2.828 0.123,5.841 -0.0307,8.73 -0.2152,3.474 -0.4919,7.071 -1.1989,10.483 -0.4919,2.367 -1.4756,4.642 -2.8896,6.671 -1.0452,1.475 -2.5208,2.459 -4.273,3.043 -1.1682,0.369 -2.3978,0.369 -3.6889,-0.062 -1.2911,-0.461 -2.2748,-1.198 -2.9511,-2.213 -0.7685,-1.168 -1.3833,-2.736 -1.8137,-4.673 -0.7685,-4.242 -1.2911,-8.115 -1.0452,-12.265 0.3074,-5.872 1.4141,-12.173 3.4122,-17.983 0.83,-2.398 1.7523,-4.427 2.7052,-5.964 1.1067,-1.722 2.6437,-2.582 4.4267,-2.705 1.6292,-0.123 2.9818,0.522 3.9348,1.936 0.6763,1.046 1.2911,2.583 1.8444,4.581 1.0452,3.35 1.4449,6.947 1.5678,10.421 z m -13.7718,23.394 c 0.2152,0.737 0.5226,1.291 0.9222,1.721 -1.8137,-13.557 -0.4919,-26.222 4.1192,-39.102 -0.2766,0.154 -0.584,0.522 -0.9529,1.045 -0.7685,1.137 -1.5063,2.828 -2.2748,5.011 -1.66,4.642 -2.4285,9.622 -3.1048,14.509 -0.3997,2.859 -0.5226,5.995 -0.246,8.884 0.246,2.859 0.7686,5.503 1.5371,7.932 z m 9.6833,-3.751 c 0.8607,-3.381 1.1067,-6.824 1.3526,-10.267 0.2152,-2.798 0.3074,-5.226 0.2459,-7.163 -0.1229,-3.351 -0.2152,-6.732 -0.9837,-10.021 -0.5226,-2.244 -1.1374,-4.089 -1.8444,-5.503 -0.0308,-0.061 -0.0308,-0.092 -0.0615,-0.123 -0.123,-0.277 -0.3074,-0.461 -0.4304,-0.43 -0.0615,0 -0.1537,0.092 -0.2152,0.123 -0.0614,0.03 -0.0922,0.215 -0.1844,0.522 -2.6745,6.118 -3.9348,12.604 -4.7033,19.121 -0.4919,4.335 -0.5226,8.792 -0.0923,13.157 0.0308,0.215 0.0615,0.707 0.1537,1.445 0.0615,0.738 0.123,1.26 0.1537,1.568 0.0615,0.307 0.123,0.768 0.2152,1.352 0.0923,0.584 0.2152,1.107 0.3382,1.568 0.1229,0.461 0.2766,0.922 0.4304,1.291 0.1537,0.308 0.3688,0.431 0.6148,0.308 0.9837,-0.339 1.66,-0.738 2.0903,-1.261 1.4141,-1.598 2.3671,-3.473 2.9204,-5.687 z"
       fill="#212121"
       id="path6" />
    <path
       d="m 86.5638,208.541 c 0.0307,0.215 0.0922,0.368 0.2152,0.399 0.0615,-0.092 0.0922,-0.276 0.0922,-0.522 0,-0.031 0,-0.123 -0.0307,-0.246 -0.0308,-0.123 -0.0308,-0.216 -0.0308,-0.308 0,-0.092 0,-0.184 0,-0.276 0.0308,-1.015 0.0615,-2.429 0.0922,-4.273 0.0308,-1.845 0.0615,-3.505 0.0923,-5.042 0.0307,-1.537 0.0307,-2.982 0.0614,-4.334 0,-1.015 0.0308,-2.183 0.0308,-3.474 0,-1.291 0,-2.49 0,-3.504 0,-1.046 0,-2.214 0,-3.505 0,-1.291 0,-2.49 0.0307,-3.535 0,-0.492 0.0308,-1.383 0.0308,-2.675 0,-1.291 0.0307,-2.274 0.0614,-2.951 0,-0.43 0.0615,-0.891 0.1538,-1.26 0.0614,-0.215 0.2151,-0.4 0.3688,-0.584 0.1537,-0.185 0.3382,-0.277 0.5534,-0.338 0.2152,-0.062 0.3996,-0.062 0.5533,-0.031 0.707,0.154 1.0452,0.615 0.953,1.414 -0.246,2.859 -0.3382,5.841 -0.2152,8.73 0,0.523 -0.0308,1.292 -0.0308,2.275 0,0.984 0,1.722 -0.0307,2.152 0,3.259 0.0307,5.349 0,6.025 -0.1844,3.413 -0.0922,7.071 -0.0922,10.606 -0.0308,4.611 0,7.347 0.0307,8.085 0.123,2.52 0.123,4.457 0.0922,5.779 -0.0307,0.646 -0.3074,1.076 -0.8914,1.23 -0.6148,0.153 -1.1682,0.03 -1.6293,-0.431 -0.2767,-0.276 -0.4611,-0.584 -0.5533,-0.953 -0.9222,-2.889 -1.3834,-4.426 -1.3526,-4.549 -0.2459,-0.861 -0.6456,-2.06 -1.1682,-3.628 -0.5226,-1.568 -0.8914,-2.674 -1.0759,-3.351 -0.1844,-0.522 -0.5533,-1.782 -1.1374,-3.719 -0.5841,-1.937 -1.0452,-3.443 -1.3526,-4.519 -1.1374,-3.689 -2.3056,-7.378 -3.4737,-11.097 -0.123,-0.4 -0.6763,-2.029 -1.5985,-4.919 -0.123,-0.369 -0.1845,-0.553 -0.3074,-0.953 -0.1537,0.123 -0.2152,0.369 -0.246,0.707 -0.2151,4.703 -0.4303,9.407 -0.6455,14.11 -0.0307,0.984 -0.0922,2.183 -0.1537,3.597 -0.0615,1.445 -0.1537,2.828 -0.2152,4.181 -0.0922,1.352 -0.2152,2.582 -0.2767,3.658 -0.0614,0.676 -0.0922,1.66 -0.1844,2.889 -0.0922,1.199 -0.1537,2.337 -0.2767,3.351 -0.0922,1.014 -0.1844,1.967 -0.2766,2.828 -0.0923,0.892 -0.5226,1.322 -1.2912,1.322 -0.83,0.031 -1.3218,-0.369 -1.2911,-1.137 0.0308,-1.814 0.2152,-3.167 0.2767,-3.843 0.0308,-0.369 0.0615,-0.83 0.0922,-1.26 0.0308,-0.431 0.0922,-0.923 0.1537,-1.445 0.0615,-0.523 0.0922,-0.953 0.0922,-1.261 0.3382,-4.857 0.6456,-9.867 0.8915,-14.817 0.2767,-5.164 0.5226,-10.328 0.7993,-15.493 0.0307,-0.43 0.0922,-1.168 0.1844,-2.152 0.0923,-0.983 0.1537,-1.783 0.1845,-2.336 0.0307,-0.338 0.1229,-0.676 0.3074,-0.984 0.3689,-0.43 0.83,-0.584 1.3218,-0.492 0.4919,0.093 0.83,0.4 0.9837,0.953 0.7686,3.259 1.7523,6.456 2.7975,9.653 1.3525,4.15 2.244,6.732 2.5514,7.747 1.3526,4.334 2.736,8.669 4.0578,13.003 0.123,0.492 0.3074,1.076 0.5533,1.752 0.246,0.676 0.4612,1.322 0.6456,1.937 0.1537,0.707 0.3382,1.291 0.5226,1.814 z"
       fill="#212121"
       id="path8" />
    <path
       d="m 95.0175,201.624 c -0.0307,-0.615 -0.123,-1.691 -0.0922,-3.043 0.0922,-5.319 0.9837,-11.159 3.2585,-16.139 1.2911,-2.828 2.7362,-5.718 5.1342,-7.87 1.598,-1.414 3.32,-1.967 5.072,-1.814 0.953,0.093 1.906,0.738 2.828,1.968 0.461,0.584 0.799,1.475 1.107,2.582 0.153,0.615 -0.031,1.076 -0.646,1.322 -0.646,0.276 -1.199,0.123 -1.629,-0.461 -0.093,-0.185 -0.215,-0.523 -0.338,-0.984 -0.154,-0.523 -0.369,-0.984 -0.677,-1.383 -0.215,-0.216 -0.399,-0.216 -0.522,0 -1.998,2.982 -3.935,6.209 -4.95,9.56 -1.26,4.212 -2.213,8.669 -2.305,13.126 -0.062,2.89 -0.092,5.964 0.522,8.823 0.646,2.982 1.722,5.625 3.105,7.839 0.277,0.492 0.554,0.768 0.83,0.83 0.246,0.061 0.646,-0.062 1.168,-0.369 0.677,-0.4 1.199,-1.015 1.63,-1.875 0.891,-1.783 1.721,-3.843 2.49,-6.241 0,-0.03 0.03,-0.123 0.061,-0.184 0,-0.092 0.031,-0.154 0.062,-0.185 0.276,-0.707 0.768,-1.014 1.475,-0.891 0.738,0.154 1.076,0.615 1.015,1.383 -0.031,0.4 -0.216,1.015 -0.523,1.876 -1.23,3.166 -2.121,5.133 -2.613,5.932 -0.707,1.107 -1.506,1.906 -2.398,2.398 -1.844,0.984 -3.75,0.922 -5.625,-0.184 -1.599,-0.953 -2.9206,-2.367 -3.9658,-4.119 -2.1518,-3.659 -3.2278,-7.747 -3.4737,-11.897 z m 3.6581,6.087 c 0.3075,1.106 0.7378,2.121 1.2604,3.043 -0.7378,-2.398 -1.1681,-4.703 -1.2911,-6.978 -0.123,-2.337 -0.0922,-4.704 0.0615,-7.132 0.1537,-2.398 0.5226,-4.765 1.0759,-7.04 0.6767,-2.736 1.3217,-5.041 1.9977,-6.824 0.615,-1.568 1.691,-3.658 3.167,-6.241 -0.031,-0.03 -0.031,-0.03 -0.062,-0.061 -0.092,-0.031 -0.123,-0.092 -0.123,-0.123 -0.123,0.215 -0.215,0.307 -0.338,0.523 -1.26,1.506 -2.213,2.889 -2.889,4.18 -2.7364,5.257 -3.6893,11.159 -4.1505,16.938 -0.2766,3.32 0.4919,6.518 1.2911,9.715 z"
       fill="#212121"
       id="path10" />
    <path
       d="m 133.136,189.112 c -0.031,-0.338 -0.092,-2.09 -0.246,-5.226 0,-0.276 -0.061,-1.106 -0.123,-2.49 -0.061,-1.383 -0.184,-2.367 -0.277,-2.858 -0.092,-0.584 -0.092,-1.507 -0.092,-2.644 0,-1.138 0.031,-1.845 0,-2.121 0,-0.277 0.062,-0.615 0.154,-1.015 0.123,-0.461 0.4,-0.768 0.891,-0.83 0.523,-0.061 0.953,0.093 1.23,0.461 0.246,0.369 0.43,0.984 0.492,1.691 0.277,3.535 0.246,7.316 0.338,11.005 0.031,0.369 0.031,0.615 0.031,0.8 0.061,1.199 0.153,3.658 0.338,7.347 0.123,3.074 0.277,6.179 0.461,9.253 0.154,2.459 0.246,4.949 0.4,7.347 0.153,2.92 0.369,4.887 0.492,5.81 0,0.215 0.03,0.461 0.03,0.737 0,0.769 -0.43,1.199 -1.229,1.261 -0.83,0.061 -1.353,-0.277 -1.476,-1.045 0,-0.031 0,-0.154 0,-0.339 -0.277,-4.088 -0.43,-6.271 -0.43,-6.486 -0.062,-0.738 -0.215,-2.889 -0.369,-6.394 -0.154,-3.504 -0.246,-5.625 -0.277,-6.394 -0.031,-0.4 -0.092,-0.646 -0.215,-0.768 -0.123,-0.093 -0.4,-0.123 -0.861,-0.062 -1.598,0.215 -4.058,0.492 -7.316,0.799 -2.275,0.215 -3.75,0.308 -4.365,0.338 -0.523,0 -0.707,0.277 -0.677,0.738 0.277,3.689 0.123,6.148 0.093,6.702 -0.093,3.566 0.123,7.347 0.184,11.005 0,0.123 0,0.246 0,0.338 -0.031,0.307 -0.154,0.553 -0.369,0.769 -0.215,0.215 -0.522,0.276 -0.799,0.307 -0.277,0.031 -0.553,-0.031 -0.83,-0.215 -0.277,-0.185 -0.369,-0.461 -0.4,-0.769 -0.061,-0.707 -0.153,-1.475 -0.123,-2.121 0.062,-1.045 0.093,-2.428 0.062,-4.15 -0.031,-1.691 -0.092,-3.105 -0.092,-4.15 0,-1.445 0,-3.566 -0.062,-6.302 -0.061,-2.736 -0.061,-4.672 -0.061,-5.779 0.03,-3.597 -0.093,-7.347 -0.031,-10.944 0,-0.86 0.031,-2.152 0,-3.842 -0.031,-1.691 -0.062,-2.828 -0.062,-3.443 0,-0.277 0,-0.431 0,-0.461 0.062,-0.8 0.462,-1.199 1.169,-1.23 0.307,0 0.584,0.092 0.768,0.307 0.215,0.216 0.308,0.492 0.308,0.8 0.061,1.199 0.122,2.275 0.061,3.043 -0.031,0.553 -0.031,0.922 -0.031,0.984 0.062,1.137 0.093,2.766 0.093,4.918 0,2.121 0.03,3.689 0.092,4.642 0,0.185 0,0.461 -0.062,0.83 -0.031,0.369 -0.061,0.646 -0.061,0.83 0,0.308 0.061,0.523 0.153,0.615 0.093,0.123 0.339,0.123 0.677,0.092 1.506,-0.154 3.012,-0.184 4.242,-0.338 1.906,-0.184 3.966,-0.369 6.148,-0.553 0.123,0 0.338,0 0.615,-0.031 0.277,0 0.523,-0.062 0.676,-0.092 0.461,0.03 0.738,-0.185 0.738,-0.677 z m -0.492,3.136 c -0.061,0 -0.338,0 -0.83,0.031 -0.768,0.061 -1.199,0.123 -1.229,0.123 -0.4,0.061 -0.984,0.153 -1.722,0.246 -0.738,0.092 -1.414,0.184 -2.029,0.246 -0.615,0.061 -1.199,0.122 -1.752,0.184 -2.89,0.307 -4.365,0.461 -4.457,0.461 -0.462,0 -0.677,0.277 -0.615,0.738 0.03,0.246 0.276,0.369 0.707,0.307 0.369,-0.061 0.922,-0.123 1.66,-0.246 0.861,-0.153 2.09,-0.307 3.719,-0.399 1.599,-0.123 2.736,-0.246 3.29,-0.277 0.307,-0.031 0.676,-0.061 1.014,-0.123 0.369,-0.061 0.769,-0.123 1.23,-0.184 0.461,-0.062 0.83,-0.154 1.014,-0.185 0.369,-0.061 0.553,-0.215 0.523,-0.492 0.03,-0.215 -0.154,-0.399 -0.523,-0.43 z"
       fill="#212121"
       id="path12" />
    <path
       d="m 147.123,174.234 c 0,0.123 0.123,1.168 0.215,2.982 0.031,0.738 0.092,2.275 0.277,4.549 0.184,2.306 0.307,3.812 0.338,4.55 0.154,1.844 0.246,2.767 0.4,4.611 0.03,0.338 0.092,0.584 0.184,0.676 0.092,0.093 0.338,0.185 0.707,0.185 1.353,0.031 2.828,-0.123 4.335,-0.246 0.215,-0.031 0.491,-0.062 0.799,-0.092 0.307,-0.031 0.584,-0.093 0.891,-0.123 0.308,-0.031 0.554,-0.062 0.8,-0.092 0.799,-0.093 1.352,0.215 1.444,0.891 0.062,0.338 -0.061,0.646 -0.245,0.922 -0.185,0.246 -0.492,0.431 -0.892,0.492 -0.83,0.123 -1.721,0.215 -2.551,0.277 -0.554,0.03 -1.353,0.092 -2.398,0.184 -1.045,0.092 -1.691,0.123 -1.845,0.123 -0.399,0.031 -0.676,0.092 -0.768,0.185 -0.123,0.092 -0.154,0.338 -0.123,0.737 0.246,2.951 0.584,5.995 0.83,8.977 0,0.184 0.031,0.307 0.031,0.399 0.338,4.396 0.553,6.917 0.584,7.532 0,0.184 0.03,0.399 0.03,0.615 0.031,0.246 0.062,0.491 0.093,0.768 0.03,0.277 0.061,0.492 0.092,0.646 0.031,0.338 0.277,0.553 0.676,0.553 0.922,0 1.937,-0.154 2.982,-0.338 0.184,-0.062 0.461,-0.123 0.799,-0.154 0.338,-0.061 0.646,-0.092 0.892,-0.123 0.246,-0.031 0.492,-0.092 0.799,-0.154 0.307,-0.061 0.584,-0.122 0.891,-0.215 0.554,-0.215 1.046,-0.061 1.384,0.492 0.338,0.492 0.276,0.984 -0.185,1.414 -0.307,0.277 -0.768,0.492 -1.383,0.646 -2.398,0.461 -5.072,0.707 -7.962,0.799 -1.045,0.031 -1.875,0 -2.521,-0.092 -1.352,-0.277 -2.09,-0.984 -2.274,-2.121 -0.154,-1.015 -0.216,-1.937 -0.308,-2.644 -0.061,-0.492 -0.123,-1.107 -0.184,-1.752 -0.031,-0.646 -0.092,-1.23 -0.154,-1.752 -0.061,-0.523 -0.123,-1.138 -0.184,-1.783 -0.062,-0.646 -0.123,-1.23 -0.154,-1.722 -0.031,-0.707 -0.092,-1.937 -0.185,-3.72 -0.092,-1.752 -0.184,-3.043 -0.276,-3.781 -0.308,-2.828 -0.431,-5.748 -0.523,-8.607 -0.031,-1.26 -0.154,-3.351 -0.338,-6.21 -0.184,-2.859 -0.277,-4.98 -0.338,-6.302 0,-0.215 -0.031,-0.491 -0.092,-0.799 -0.031,-0.307 -0.062,-0.584 -0.093,-0.861 -0.03,-0.276 -0.03,-0.553 -0.061,-0.86 -0.031,-0.308 -0.031,-0.584 -0.061,-0.8 -0.062,-0.891 0.368,-1.414 1.229,-1.598 2.921,-0.615 6.118,-0.861 9.069,-0.83 0.983,0 1.752,-0.062 2.244,-0.184 0.492,-0.093 0.953,-0.093 1.26,-0.031 0.615,0.092 0.922,0.461 0.953,1.045 0.031,0.584 -0.215,1.014 -0.83,1.199 -0.092,0 -0.369,0.061 -0.799,0.123 -0.769,0.092 -1.937,0.123 -3.443,0.184 -1.506,0.062 -2.552,0.092 -3.166,0.123 -0.492,0.031 -0.769,0.092 -0.861,0.185 0,0.153 -0.062,0.461 -0.031,0.922 z m -2.767,5.103 c 0.031,0.307 0.185,3.105 0.462,8.361 0.276,5.257 0.491,8.024 0.522,8.177 0.154,0.8 0.062,1.968 0.123,2.982 0.062,1.015 0.154,2.121 0.246,3.351 0.092,1.199 0.184,2.121 0.215,2.736 0.092,1.875 0.246,3.873 0.523,5.933 0,0.123 0.061,0.553 0.123,1.229 0.061,0.677 0.123,1.199 0.215,1.538 0.123,0.522 0.338,0.768 0.615,0.768 0.153,0 0.246,-0.061 0.276,-0.123 0.031,-0.061 0.062,-0.123 0.093,-0.215 0.03,-0.062 0,-0.154 -0.031,-0.277 -0.031,-0.092 -0.062,-0.184 -0.062,-0.215 -0.061,-0.738 -0.123,-2.121 -0.276,-4.027 -0.277,-3.812 -0.584,-7.716 -0.953,-11.497 -0.092,-1.014 -0.215,-2.429 -0.338,-4.304 -0.123,-1.844 -0.246,-3.166 -0.339,-3.904 -0.092,-0.891 -0.153,-2.244 -0.245,-3.935 -0.123,-1.69 -0.185,-2.981 -0.246,-3.873 -0.031,-0.523 -0.062,-1.168 -0.123,-1.937 -0.062,-0.768 -0.093,-1.414 -0.123,-1.906 -0.031,-0.491 -0.062,-1.137 -0.093,-1.905 -0.03,-0.769 -0.061,-1.415 -0.092,-1.968 -0.031,-0.43 -0.184,-0.645 -0.43,-0.645 -0.369,0.03 -0.492,0.276 -0.43,0.768 0.122,0.953 0.215,2.613 0.368,4.888 z"
       fill="#212121"
       id="path14" />
    <path
       d="m 180.6,196.152 c -0.092,-0.461 -0.123,-0.83 -0.154,-1.076 -0.031,-0.277 -0.123,-0.43 -0.277,-0.492 -0.03,0.092 -0.061,0.308 -0.061,0.677 0.123,3.596 0.43,7.285 0.123,10.79 -0.154,1.936 -0.461,3.504 -0.83,4.58 -0.431,1.199 -1.076,2.183 -1.906,2.89 -1.383,1.229 -3.166,1.537 -5.287,0.891 -2.214,-0.646 -4.212,-2.183 -5.995,-4.334 -2.275,-2.736 -3.535,-6.21 -4.181,-9.469 -1.322,-6.486 -1.168,-13.741 0.461,-20.596 0.585,-2.674 1.814,-5.748 3.505,-7.931 1.107,-1.445 2.213,-2.398 3.32,-2.859 2.09,-0.83 3.965,-0.768 5.595,0.185 0.615,0.43 1.26,1.076 1.906,1.967 1.291,1.844 2.151,4.181 2.643,6.886 0.123,0.615 -0.03,1.076 -0.461,1.322 -0.307,0.184 -0.676,0.184 -1.014,0.061 -0.338,-0.123 -0.554,-0.369 -0.707,-0.707 -0.431,-1.721 -0.769,-2.92 -1.015,-3.535 -0.584,-1.476 -1.229,-2.644 -1.936,-3.443 -0.83,-0.922 -1.906,-1.199 -3.197,-0.922 -1.199,0.277 -2.367,1.199 -3.413,2.705 -1.567,2.213 -2.674,5.441 -3.135,8.116 -0.646,3.781 -1.045,7.316 -1.015,11.066 0.031,3.966 0.738,8.177 2.306,11.897 0.984,2.336 2.305,4.273 4.027,5.748 1.045,0.923 2.213,1.507 3.474,1.783 1.414,0.308 2.52,-0.123 3.289,-1.414 0.461,-0.891 0.83,-2.121 1.014,-3.658 0.4,-3.105 0.431,-6.425 0.185,-9.56 -0.031,-0.4 -0.031,-1.138 -0.092,-2.121 -0.031,-0.308 -0.093,-0.492 -0.185,-0.584 -0.092,-0.093 -0.277,-0.093 -0.615,-0.062 -0.246,0.031 -0.584,0.062 -1.106,0.123 -0.492,0.062 -0.861,0.092 -1.107,0.123 -0.83,0.092 -1.291,-0.215 -1.353,-0.922 -0.03,-0.277 0.062,-0.523 0.277,-0.799 0.215,-0.277 0.461,-0.431 0.799,-0.462 0.769,-0.061 1.906,-0.184 3.351,-0.43 1.445,-0.246 2.49,-0.461 3.074,-0.553 0.953,-0.154 1.568,0.307 1.691,1.26 0.215,2.029 0.43,3.597 0.615,4.519 0.123,0.553 0.307,1.721 0.553,3.474 0.461,3.105 0.738,4.795 0.769,5.041 0.153,1.199 0.43,2.828 0.83,4.98 0.03,0.308 0.061,0.584 0.092,0.799 -0.031,0.585 -0.369,0.923 -1.015,1.046 -0.614,0.123 -1.045,-0.093 -1.291,-0.646 -0.061,-0.123 -0.092,-0.277 -0.123,-0.461 -0.061,-0.369 -0.153,-0.799 -0.215,-1.26 -0.061,-0.462 -0.123,-0.953 -0.215,-1.476 -0.092,-0.523 -0.154,-0.953 -0.185,-1.26 -0.553,-3.658 -1.106,-7.286 -1.66,-10.944 -0.03,-0.184 -0.092,-0.492 -0.153,-0.953 z"
       fill="#212121"
       id="path16" />
    <path
       d="m 203.348,181.058 c 0.738,2.736 1.383,5.687 1.844,8.546 0.554,3.443 1.045,7.04 1.076,10.483 0.031,2.428 -0.461,4.857 -1.414,7.132 -0.707,1.66 -1.936,2.951 -3.535,3.873 -1.045,0.615 -2.275,0.892 -3.627,0.738 -1.353,-0.154 -2.46,-0.676 -3.351,-1.537 -0.984,-0.984 -1.937,-2.367 -2.798,-4.181 -1.69,-3.996 -3.012,-7.654 -3.688,-11.743 -0.953,-5.779 -1.261,-12.204 -0.554,-18.321 0.308,-2.521 0.738,-4.704 1.384,-6.394 0.707,-1.906 2.028,-3.105 3.75,-3.597 1.568,-0.461 3.043,-0.154 4.273,1.045 0.891,0.861 1.844,2.244 2.797,4.058 1.814,3.105 2.951,6.517 3.843,9.898 z m -8.423,25.792 c 0.369,0.676 0.799,1.168 1.291,1.506 -4.673,-12.85 -6.117,-25.484 -4.396,-39.071 -0.246,0.215 -0.461,0.614 -0.707,1.229 -0.492,1.261 -0.861,3.074 -1.168,5.38 -0.615,4.888 -0.308,9.929 0.092,14.848 0.215,2.889 0.769,5.963 1.66,8.73 0.861,2.705 1.968,5.195 3.228,7.378 z m 8.669,-5.749 c 0.123,-3.473 -0.4,-6.916 -0.892,-10.329 -0.399,-2.766 -0.799,-5.164 -1.291,-7.039 -0.83,-3.228 -1.66,-6.548 -3.105,-9.591 -1.014,-2.091 -1.998,-3.751 -2.981,-4.98 -0.031,-0.062 -0.062,-0.062 -0.093,-0.123 -0.184,-0.246 -0.399,-0.369 -0.522,-0.338 -0.062,0.03 -0.154,0.123 -0.185,0.153 -0.03,0.062 -0.061,0.246 -0.061,0.554 -1.291,6.547 -1.138,13.157 -0.461,19.674 0.43,4.334 1.352,8.699 2.736,12.849 0.092,0.215 0.215,0.677 0.461,1.384 0.215,0.707 0.399,1.199 0.492,1.506 0.123,0.307 0.276,0.707 0.491,1.26 0.216,0.554 0.462,1.045 0.677,1.445 0.215,0.4 0.461,0.83 0.707,1.168 0.215,0.277 0.461,0.338 0.676,0.185 0.892,-0.523 1.476,-1.076 1.783,-1.66 0.953,-1.783 1.476,-3.843 1.568,-6.118 z"
       fill="#212121"
       id="path18" />
    <path
       d="m 193.019,43.3704 c 0,2.7974 -0.308,5.6256 -0.861,8.3922 -1.629,7.9926 -5.533,15.6163 -11.743,21.7952 L 108.82,145.153 c -1.291,1.291 -2.951,1.906 -4.642,1.875 -0.676,0 -1.352,-0.092 -2.029,-0.307 -0.953,-0.308 -1.875,-0.83 -2.6127,-1.599 L 95.7552,141.341 27.9718,73.5578 C 26.4041,71.99 24.9593,70.2993 23.6681,68.5471 18.1348,61.0156 15.3374,52.07 15.3374,43.1245 V 43.063 c 0,-5.9637 1.2296,-11.9274 3.6889,-17.4607 2.0904,-4.7034 5.0722,-9.13 8.9148,-12.9726 0.9222,-0.9223 1.8752,-1.783 2.8589,-2.613 16.9074,-14.17148 42.1456,-13.28 58.0693,2.613 l 10.7285,10.7285 c 2.5212,2.5207 6.6092,2.5207 9.1302,0 l 10.728,-10.7285 c 2.214,-2.2134 4.611,-4.15003 7.132,-5.77929 16.692,-10.75926 39.164,-8.85334 53.766,5.77929 2.49,2.49 4.611,5.1952 6.363,8.0848 1.445,2.367 2.644,4.8263 3.566,7.3778 1.906,4.9185 2.797,10.1137 2.736,15.2781 z"
       fill="#6fb0b4"
       id="path20" />
    <path
       d="m 193.019,43.3704 c 0,2.7974 -0.308,5.6256 -0.861,8.3922 -1.629,7.9926 -5.533,15.6163 -11.743,21.7952 L 108.82,145.153 c -1.291,1.291 -2.951,1.906 -4.642,1.875 -0.676,0 -1.352,-0.092 -2.029,-0.307 -0.953,-0.308 -1.875,-0.83 -2.6127,-1.599 l -3.7811,-3.781 C 117.274,121.022 188.008,50.656 169.963,20.5915 158.282,1.13263 140.391,2.08559 126.65,6.85041 c 16.692,-10.75926 39.163,-8.85334 53.765,5.77929 2.49,2.49 4.611,5.1952 6.364,8.0848 1.444,2.367 2.643,4.8263 3.565,7.3778 1.845,4.9185 2.736,10.1137 2.675,15.2781 z"
       fill="#68aaaa"
       id="path22" />
    <path
       d="m 193.019,43.3704 c -7.132,7.1626 -15.586,12.4193 -24.009,17.9219 -12.818,8.3922 -42.76,14.11 -50.722,15.4933 -0.215,0.0307 -0.461,0.0615 -0.676,0 -0.338,-0.0307 -0.646,-0.1537 -0.892,-0.3074 -0.461,-0.2767 -0.799,-0.7378 -0.953,-1.2911 -0.368,-1.2297 0.369,-2.49 1.599,-2.7974 l 10.083,-2.49 c 0.4,-0.0923 0.738,-0.3689 0.984,-0.6763 0.184,-0.2767 0.276,-0.5841 0.246,-0.8915 v -0.0308 c 0,-0.0614 0,-0.1537 -0.031,-0.2151 -0.154,-0.83 -0.922,-1.4141 -1.752,-1.3219 l -1.107,0.123 -17.246,1.7829 c -0.461,0.0615 -0.922,-0.0922 -1.26,-0.3381 -0.092,-0.0615 -0.184,-0.1537 -0.277,-0.2459 -0.215,-0.246 -0.369,-0.5226 -0.43,-0.8608 -0.185,-0.9837 0.461,-1.9059 1.445,-2.0904 l 16.354,-3.0125 c 0.369,-0.0615 0.676,-0.2767 0.891,-0.5841 0.215,-0.3074 0.308,-0.6763 0.215,-1.0452 -0.122,-0.6763 -0.707,-1.1681 -1.414,-1.1374 l -21.211,0.4918 c -0.584,0.0308 -1.106,-0.1844 -1.537,-0.5226 -0.43,-0.3381 -0.738,-0.83 -0.83,-1.414 -0.276,-1.4141 0.769,-2.7359 2.214,-2.7974 l 21.487,-1.0145 c 0.062,0 0.123,0 0.185,-0.0307 0.676,-0.123 1.199,-0.7378 1.199,-1.4448 0,-0.7071 -0.523,-1.2911 -1.199,-1.4141 l -20.596,-3.5044 c -0.83,-0.1538 -1.476,-0.7993 -1.63,-1.5986 -0.03,-0.1537 -0.03,-0.2766 -0.03,-0.4303 0.03,-1.1989 1.106,-2.0904 2.274,-1.906 l 25.515,3.4737 c 0.615,0.0923 1.23,-0.2459 1.476,-0.83 V 46.383 c 0.492,-1.0759 0.061,-2.3363 -0.953,-2.8896 -2.06,-1.1374 -4.919,-3.5967 -6.579,-5.103 -0.399,-0.3689 -0.676,-0.8607 -0.768,-1.3833 -0.093,-0.5226 -0.031,-1.0452 0.215,-1.5371 0.584,-1.1989 2.06,-1.7214 3.258,-1.1066 3.32,1.5985 9.899,4.4574 15.647,5.2566 19.582,1.66 31.387,-3.1355 42.915,-16.6614 0.614,-0.7071 1.137,-1.4141 1.598,-2.1212 1.445,2.3671 2.644,4.8263 3.566,7.3778 0.584,1.5371 1.045,3.1356 1.445,4.7034 0.246,1.0144 0.461,2.0288 0.645,3.0433 0.093,0.6148 0.185,1.2604 0.277,1.9059 0.277,1.7522 0.4,3.6274 0.369,5.5026 z"
       fill="#479393"
       id="path24" />
    <path
       d="m 115.46,88.4056 c 0,0.5841 -0.184,1.1067 -0.553,1.537 -0.338,0.4304 -0.861,0.7071 -1.414,0.7993 l -20.9041,3.5967 c -0.6763,0.1229 -1.1682,0.707 -1.1682,1.3833 0,0.3689 0.1537,0.7378 0.4304,0.9837 0.2459,0.2459 0.6148,0.3996 0.9837,0.3996 l 16.6312,-0.1844 c 0.645,0 1.229,0.3381 1.537,0.8607 0.153,0.2767 0.246,0.5841 0.246,0.9222 0,0.4612 -0.154,0.8915 -0.462,1.2297 -0.307,0.3076 -0.707,0.5536 -1.168,0.5836 l -18.3827,1.66 c -0.707,0.062 -1.2911,0.585 -1.4141,1.23 -0.0307,0.123 -0.0615,0.246 -0.0307,0.4 0,0.43 0.1844,0.83 0.4611,1.106 0.2767,0.277 0.6456,0.461 1.0759,0.492 l 10.3905,0.523 c 1.26,0.061 2.244,1.168 2.121,2.428 -0.061,0.584 -0.307,1.076 -0.707,1.445 -0.4,0.369 -0.922,0.584 -1.476,0.584 -5.9633,0.123 -24.0389,0.215 -38.8559,-2.029 L 51.1811,96.7363 38.8541,84.44 27.9411,73.5271 c -1.5678,-1.5678 -3.0126,-3.2586 -4.3037,-5.0108 v -0.0307 c 0.5841,0.5841 1.2604,1.1989 1.9982,1.7522 13.8948,11.0667 26.437,13.4952 45.3118,8.1156 5.5026,-1.906 11.4048,-5.9637 14.3559,-8.1771 1.076,-0.7992 2.613,-0.584 3.4123,0.4919 0.3381,0.4304 0.4918,0.953 0.5225,1.4755 0,0.5226 -0.1537,1.0452 -0.4918,1.5063 -1.3526,1.8137 -3.6582,4.7648 -5.4719,6.2711 -0.9222,0.7686 -1.1066,2.0597 -0.3996,3.0126 l 0.0307,0.0308 c 0.3689,0.5226 1.0452,0.707 1.6293,0.5226 l 24.3772,-8.3 c 1.107,-0.3689 2.337,0.2766 2.582,1.4448 0.031,0.1537 0.062,0.3074 0.062,0.4304 0,0.83 -0.492,1.5985 -1.291,1.9059 L 90.7137,86.346 c -0.6455,0.2459 -1.0452,0.9222 -0.9222,1.6292 0.1229,0.7071 0.7378,1.1989 1.4448,1.1989 0.0615,0 0.123,0 0.1844,0 l 21.3033,-3.1355 c 1.445,-0.1538 2.736,0.9529 2.736,2.367 z"
       fill="#bde6c4"
       id="path26" />
    <path
       d="m 49.9896,29.7611 c 3.3614,-3.3614 4.3346,-7.838 2.1737,-9.9989 -2.1609,-2.1609 -6.6376,-1.1877 -9.9989,2.1737 -3.3614,3.3613 -4.3346,7.838 -2.1737,9.9989 2.1609,2.1609 6.6375,1.1877 9.9989,-2.1737 z"
       fill="#7ec1c1"
       id="path28" />
    <path
       d="m 103.84,108.387 c -0.061,0.584 -0.307,1.076 -0.707,1.445 -0.4,0.369 -0.922,0.584 -1.476,0.584 -5.9633,0.123 -24.0389,0.215 -38.8559,-2.029 l -6.8244,-6.824 c 7.1318,1.629 17.3377,2.459 33.8763,1.875 -0.0308,0.123 -0.0615,0.246 -0.0308,0.399 0,0.431 0.1845,0.83 0.4611,1.107 0.2767,0.277 0.6456,0.461 1.076,0.492 l 10.3907,0.523 c 1.229,0.061 2.182,1.168 2.09,2.428 z"
       fill="#a7d3ad"
       id="path30" />
    <path
       d="m 193.019,43.3704 c -7.132,7.1626 -15.586,12.4193 -24.009,17.9219 -12.818,8.3922 -42.76,14.11 -50.722,15.4933 -0.215,0.0307 -0.461,0.0615 -0.676,0 -0.338,-0.0307 -0.646,-0.1537 -0.892,-0.3074 -0.461,-0.2767 -0.799,-0.7378 -0.953,-1.2911 -0.368,-1.2297 0.369,-2.49 1.599,-2.7974 l 10.083,-2.49 c 0.4,-0.0923 0.738,-0.3689 0.984,-0.6763 0.184,-0.2767 0.276,-0.5841 0.246,-0.8915 31.785,-4.6111 54.195,-21.6722 64.002,-30.5563 0.246,1.8444 0.369,3.7196 0.338,5.5948 z"
       fill="#408987"
       id="path32" />
  </g>
</svg>
