<svg width="54" height="53" viewBox="0 0 54 53" fill="none" xmlns="http://www.w3.org/2000/svg">
<path fill-rule="evenodd" clip-rule="evenodd" d="M26.5273 53C41.1629 53 53.0273 41.1355 53.0273 26.5C53.0273 11.8645 41.1629 0 26.5273 0C11.8918 0 0.0273438 11.8645 0.0273438 26.5C0.0273438 41.1355 11.8918 53 26.5273 53ZM8.54002 13.6942C0.546148 23.7599 8.08606 38.4999 19.8652 34.1983C16.5127 46.8121 32.4491 52.0701 41.6595 43.155C50.5841 34.5166 51.5046 19.6899 41.6595 9.993C33.8202 2.27174 16.5339 3.62857 8.54002 13.6942Z" fill="#367B99"/>
<path fill-rule="evenodd" clip-rule="evenodd" d="M28.557 30.1579C30.1359 29.1873 31.893 27.7962 33.6146 26.1271C37.8949 21.9773 41.3625 16.1178 39.9282 14.6385C38.494 13.1592 33.1927 16.3898 28.9124 20.5396C26.9587 22.4338 25.3412 24.5177 24.2964 26.3642L19.3207 26.5893L15.2071 30.2056L19.478 30.0667L22.7307 31.6574L23.9975 34.9129L23.3691 38.5086L28.2393 33.7595L28.557 30.1579Z" fill="#367B99"/>
</svg>
