<svg width="343" height="343" viewBox="0 0 343 343" fill="none" xmlns="http://www.w3.org/2000/svg">
<circle cx="171.436" cy="171.436" r="165" fill="white"/>
<path d="M243.753 152.857C243.588 161.307 233.362 176.662 222.651 178.229C218.57 172.382 210.048 171.773 205.522 169.243C206.635 174.759 209.012 178.488 213.124 182.763C210.144 187.686 199.615 189.84 192.706 189.706C185.797 189.571 177.24 188.425 167.028 180.29C163.864 180.48 159.719 182.445 158.046 183.786C155.57 189.767 154.959 195.057 153.747 202.55C153.436 204.476 153.489 206.276 153.382 207.815C153.311 211.484 154.94 211.017 155.67 211.53C158.794 212.622 163.192 202.239 166.481 208.333C170.227 215.272 160.095 213.594 158.198 216.299C156.511 218.706 160.264 217.912 166.272 219.078C169.396 220.188 169.851 224.135 167.989 225.142C163.194 228.981 159.089 220.335 156.004 221.238C154.401 222.779 163.744 227.681 159.197 232.311C149.973 234.753 155.27 223.58 152.043 222.733C149.412 223.206 150.337 233.296 146.102 231.595C139.078 228.773 148.36 223.35 147.104 220.54C145.094 216.043 137.415 225.594 136.117 219.276C134.441 211.116 147.095 218.162 146.743 212.143C146.551 208.85 145.854 203.998 145.905 201.377C146.063 193.242 145.903 188.006 145.903 188.006C132.778 192.49 118.702 204.508 124.638 231.176C137.64 289.602 224.751 276.253 257.543 217.423C268.712 197.384 288.136 140.967 237.422 93.0195C215.274 72.0802 171.188 47.9521 114.355 71.5067C93.2097 80.2704 77.2808 98.2154 68.8235 107.324C62.1284 114.534 46.1594 140.178 52.2397 151.046C58.32 161.914 70.979 158.102 71.1504 149.318C65.2858 152.866 58.6159 144.385 64.8271 138.707C69.3405 134.582 86.0102 140.073 77.8671 158.236C75.5968 163.3 69.5118 168.949 60.2837 168.769C48.0873 168.531 38.1781 159.551 38.5949 138.195C38.7957 127.905 45.4677 108.441 53.3033 96.5336C61.1388 84.6262 77.7284 64.1343 110.894 47.3186C156.705 24.0918 201.614 35.4263 211.219 38.5266C238.019 47.177 255.898 59.8483 274.389 79.6104C294.419 101.017 306.047 133.188 308.068 154.112C317.665 253.493 247.506 292.555 229.199 299.484C190.993 313.945 145.807 311.88 116.505 297.286C87.2023 282.691 72.8739 254.748 69.1587 224.525C67.316 209.534 75.1226 184.259 84.8681 171.871C94.6136 159.482 116.212 137.612 151.975 135.501C147.675 121.378 154.107 113.32 160.254 110.943C167.015 108.328 178.669 110.019 190.871 113.9C214.582 121.441 243.999 140.246 243.753 152.857Z" fill="white"/>
<path d="M239.881 152.857C239.716 161.307 229.49 176.662 218.779 178.229C214.698 172.382 206.176 171.773 201.65 169.243C202.763 174.759 205.14 178.488 209.252 182.763C206.272 187.686 195.742 189.84 188.834 189.706C181.925 189.571 173.368 188.425 163.156 180.29C159.992 180.48 155.847 182.445 154.174 183.786C151.698 189.767 151.087 195.057 149.875 202.55C149.564 204.476 149.617 206.276 149.51 207.815C149.439 211.484 151.068 211.017 151.797 211.53C154.922 212.622 159.32 202.239 162.609 208.333C166.355 215.272 156.223 213.594 154.326 216.299C152.639 218.706 156.392 217.912 162.4 219.078C165.524 220.188 165.979 224.135 164.117 225.142C159.322 228.981 155.217 220.335 152.132 221.238C150.529 222.779 159.872 227.681 155.325 232.311C146.101 234.753 151.398 223.58 148.171 222.733C145.539 223.206 146.465 233.296 142.23 231.595C135.206 228.773 144.488 223.35 143.232 220.54C141.222 216.043 133.543 225.594 132.245 219.276C130.569 211.116 143.223 218.162 142.871 212.143C142.679 208.85 141.982 203.998 142.033 201.377C142.191 193.242 142.031 188.006 142.031 188.006C128.906 192.49 114.83 204.508 120.765 231.176C133.768 289.602 220.879 276.253 253.671 217.423C264.84 197.384 284.264 140.967 233.55 93.0195C211.402 72.0802 167.316 47.9521 110.483 71.5067C89.3377 80.2704 73.4088 98.2154 64.9515 107.324C58.2563 114.534 42.2873 140.178 48.3676 151.046C54.4479 161.914 67.1069 158.102 67.2783 149.318C61.4137 152.866 54.7439 144.385 60.9551 138.707C65.4684 134.582 82.1381 140.073 73.9951 158.236C71.7248 163.3 65.6397 168.949 56.4116 168.769C44.2153 168.531 34.3061 159.551 34.7228 138.195C34.9236 127.905 41.5956 108.441 49.4312 96.5336C57.2667 84.6262 73.8564 64.1343 107.022 47.3186C152.833 24.0918 197.742 35.4263 207.347 38.5266C234.147 47.177 252.026 59.8483 270.517 79.6104C290.547 101.017 302.175 133.188 304.196 154.112C313.793 253.493 243.634 292.555 225.327 299.484C187.121 313.945 141.935 311.88 112.633 297.286C83.3303 282.691 69.0018 254.748 65.2867 224.525C63.444 209.534 71.2505 184.259 80.996 171.871C90.7415 159.482 112.339 137.612 148.103 135.501C143.803 121.378 150.235 113.32 156.382 110.943C163.143 108.328 174.796 110.019 186.999 113.9C210.71 121.441 240.127 140.246 239.881 152.857Z" fill="#0071D9"/>
<ellipse cx="189.602" cy="141.742" rx="15.9899" ry="15.7278" transform="rotate(1.1177 189.602 141.742)" fill="white"/>
<circle cx="196.33" cy="146.329" r="7.07752" transform="rotate(1.1177 196.33 146.329)" fill="black"/>
<circle cx="194.324" cy="141.572" r="2.35917" transform="rotate(1.1177 194.324 141.572)" fill="white"/>
</svg>
